<?xml version="1.0" encoding="utf-8" standalone="no"?>
<!DOCTYPE svg PUBLIC "-//W3C//DTD SVG 1.1//EN"
  "http://www.w3.org/Graphics/SVG/1.1/DTD/svg11.dtd">
<svg xmlns:xlink="http://www.w3.org/1999/xlink" width="515.67875pt" height="385.363913pt" viewBox="0 0 515.67875 385.363913" xmlns="http://www.w3.org/2000/svg" version="1.1">
 <metadata>
  <rdf:RDF xmlns:dc="http://purl.org/dc/elements/1.1/" xmlns:cc="http://creativecommons.org/ns#" xmlns:rdf="http://www.w3.org/1999/02/22-rdf-syntax-ns#">
   <cc:Work>
    <dc:type rdf:resource="http://purl.org/dc/dcmitype/StillImage"/>
    <dc:date>2026-05-25T15:31:45.873000</dc:date>
    <dc:format>image/svg+xml</dc:format>
    <dc:creator>
     <cc:Agent>
      <dc:title>Matplotlib v3.8.4, https://matplotlib.org/</dc:title>
     </cc:Agent>
    </dc:creator>
   </cc:Work>
  </rdf:RDF>
 </metadata>
 <defs>
  <style type="text/css">*{stroke-linejoin: round; stroke-linecap: butt}</style>
 </defs>
 <g id="figure_1">
  <g id="patch_1">
   <path d="M 0 385.363913 
L 515.67875 385.363913 
L 515.67875 0 
L 0 0 
z
" style="fill: #ffffff"/>
  </g>
  <g id="axes_1">
   <g id="patch_2">
    <path d="M 44.72875 240.045391 
L 508.47875 240.045391 
L 508.47875 19.284141 
L 44.72875 19.284141 
z
" style="fill: #ffffff"/>
   </g>
   <g id="matplotlib.axis_1">
    <g id="xtick_1">
     <g id="line2d_1">
      <path d="M 65.808295 240.045391 
L 65.808295 19.284141 
" clip-path="url(#pee14e54982)" style="fill: none; stroke: #b0b0b0; stroke-opacity: 0.3; stroke-width: 0.8; stroke-linecap: square"/>
     </g>
     <g id="line2d_2">
      <defs>
       <path id="m83fc7a7171" d="M 0 0 
L 0 3.5 
" style="stroke: #000000; stroke-width: 0.8"/>
      </defs>
      <g>
       <use xlink:href="#m83fc7a7171" x="65.808295" y="240.045391" style="stroke: #000000; stroke-width: 0.8"/>
      </g>
     </g>
    </g>
    <g id="xtick_2">
     <g id="line2d_3">
      <path d="M 161.624411 240.045391 
L 161.624411 19.284141 
" clip-path="url(#pee14e54982)" style="fill: none; stroke: #b0b0b0; stroke-opacity: 0.3; stroke-width: 0.8; stroke-linecap: square"/>
     </g>
     <g id="line2d_4">
      <g>
       <use xlink:href="#m83fc7a7171" x="161.624411" y="240.045391" style="stroke: #000000; stroke-width: 0.8"/>
      </g>
     </g>
    </g>
    <g id="xtick_3">
     <g id="line2d_5">
      <path d="M 257.440527 240.045391 
L 257.440527 19.284141 
" clip-path="url(#pee14e54982)" style="fill: none; stroke: #b0b0b0; stroke-opacity: 0.3; stroke-width: 0.8; stroke-linecap: square"/>
     </g>
     <g id="line2d_6">
      <g>
       <use xlink:href="#m83fc7a7171" x="257.440527" y="240.045391" style="stroke: #000000; stroke-width: 0.8"/>
      </g>
     </g>
    </g>
    <g id="xtick_4">
     <g id="line2d_7">
      <path d="M 353.256643 240.045391 
L 353.256643 19.284141 
" clip-path="url(#pee14e54982)" style="fill: none; stroke: #b0b0b0; stroke-opacity: 0.3; stroke-width: 0.8; stroke-linecap: square"/>
     </g>
     <g id="line2d_8">
      <g>
       <use xlink:href="#m83fc7a7171" x="353.256643" y="240.045391" style="stroke: #000000; stroke-width: 0.8"/>
      </g>
     </g>
    </g>
    <g id="xtick_5">
     <g id="line2d_9">
      <path d="M 449.072758 240.045391 
L 449.072758 19.284141 
" clip-path="url(#pee14e54982)" style="fill: none; stroke: #b0b0b0; stroke-opacity: 0.3; stroke-width: 0.8; stroke-linecap: square"/>
     </g>
     <g id="line2d_10">
      <g>
       <use xlink:href="#m83fc7a7171" x="449.072758" y="240.045391" style="stroke: #000000; stroke-width: 0.8"/>
      </g>
     </g>
    </g>
   </g>
   <g id="matplotlib.axis_2">
    <g id="ytick_1">
     <g id="line2d_11">
      <path d="M 44.72875 220.690949 
L 508.47875 220.690949 
" clip-path="url(#pee14e54982)" style="fill: none; stroke: #b0b0b0; stroke-opacity: 0.3; stroke-width: 0.8; stroke-linecap: square"/>
     </g>
     <g id="line2d_12">
      <defs>
       <path id="m669a2965d8" d="M 0 0 
L -3.5 0 
" style="stroke: #000000; stroke-width: 0.8"/>
      </defs>
      <g>
       <use xlink:href="#m669a2965d8" x="44.72875" y="220.690949" style="stroke: #000000; stroke-width: 0.8"/>
      </g>
     </g>
     <g id="text_1">
      <text style="font: 8px 'Arial', 'Helvetica', 'DejaVu Sans', sans-serif; text-anchor: end" x="37.72875" y="223.554074" transform="rotate(-0 37.72875 223.554074)">−0.2</text>
     </g>
    </g>
    <g id="ytick_2">
     <g id="line2d_13">
      <path d="M 44.72875 183.562341 
L 508.47875 183.562341 
" clip-path="url(#pee14e54982)" style="fill: none; stroke: #b0b0b0; stroke-opacity: 0.3; stroke-width: 0.8; stroke-linecap: square"/>
     </g>
     <g id="line2d_14">
      <g>
       <use xlink:href="#m669a2965d8" x="44.72875" y="183.562341" style="stroke: #000000; stroke-width: 0.8"/>
      </g>
     </g>
     <g id="text_2">
      <text style="font: 8px 'Arial', 'Helvetica', 'DejaVu Sans', sans-serif; text-anchor: end" x="37.72875" y="186.425466" transform="rotate(-0 37.72875 186.425466)">−0.1</text>
     </g>
    </g>
    <g id="ytick_3">
     <g id="line2d_15">
      <path d="M 44.72875 146.433733 
L 508.47875 146.433733 
" clip-path="url(#pee14e54982)" style="fill: none; stroke: #b0b0b0; stroke-opacity: 0.3; stroke-width: 0.8; stroke-linecap: square"/>
     </g>
     <g id="line2d_16">
      <g>
       <use xlink:href="#m669a2965d8" x="44.72875" y="146.433733" style="stroke: #000000; stroke-width: 0.8"/>
      </g>
     </g>
     <g id="text_3">
      <text style="font: 8px 'Arial', 'Helvetica', 'DejaVu Sans', sans-serif; text-anchor: end" x="37.72875" y="149.296858" transform="rotate(-0 37.72875 149.296858)">0.0</text>
     </g>
    </g>
    <g id="ytick_4">
     <g id="line2d_17">
      <path d="M 44.72875 109.305125 
L 508.47875 109.305125 
" clip-path="url(#pee14e54982)" style="fill: none; stroke: #b0b0b0; stroke-opacity: 0.3; stroke-width: 0.8; stroke-linecap: square"/>
     </g>
     <g id="line2d_18">
      <g>
       <use xlink:href="#m669a2965d8" x="44.72875" y="109.305125" style="stroke: #000000; stroke-width: 0.8"/>
      </g>
     </g>
     <g id="text_4">
      <text style="font: 8px 'Arial', 'Helvetica', 'DejaVu Sans', sans-serif; text-anchor: end" x="37.72875" y="112.16825" transform="rotate(-0 37.72875 112.16825)">0.1</text>
     </g>
    </g>
    <g id="ytick_5">
     <g id="line2d_19">
      <path d="M 44.72875 72.176517 
L 508.47875 72.176517 
" clip-path="url(#pee14e54982)" style="fill: none; stroke: #b0b0b0; stroke-opacity: 0.3; stroke-width: 0.8; stroke-linecap: square"/>
     </g>
     <g id="line2d_20">
      <g>
       <use xlink:href="#m669a2965d8" x="44.72875" y="72.176517" style="stroke: #000000; stroke-width: 0.8"/>
      </g>
     </g>
     <g id="text_5">
      <text style="font: 8px 'Arial', 'Helvetica', 'DejaVu Sans', sans-serif; text-anchor: end" x="37.72875" y="75.039642" transform="rotate(-0 37.72875 75.039642)">0.2</text>
     </g>
    </g>
    <g id="ytick_6">
     <g id="line2d_21">
      <path d="M 44.72875 35.047909 
L 508.47875 35.047909 
" clip-path="url(#pee14e54982)" style="fill: none; stroke: #b0b0b0; stroke-opacity: 0.3; stroke-width: 0.8; stroke-linecap: square"/>
     </g>
     <g id="line2d_22">
      <g>
       <use xlink:href="#m669a2965d8" x="44.72875" y="35.047909" style="stroke: #000000; stroke-width: 0.8"/>
      </g>
     </g>
     <g id="text_6">
      <text style="font: 8px 'Arial', 'Helvetica', 'DejaVu Sans', sans-serif; text-anchor: end" x="37.72875" y="37.911034" transform="rotate(-0 37.72875 37.911034)">0.3</text>
     </g>
    </g>
    <g id="text_7">
     <!-- disturbance [m s$^{-2}$] -->
     <g transform="translate(16.33625 164.424766) rotate(-90)">
      <text>
       <tspan style="font: 8px 'Arial'" x="0 4.449219 6.226562 10.226562 12.449219 16.898438 19.5625 24.011719 28.460938 32.910156 36.910156 41.359375 43.582031 45.804688 52.46875 54.691406 67.241797" y="-0.78125">disturbance [m s]</tspan>
       <tspan style="font: 5.6px 'DejaVu Sans'" x="58.767969 63.460156" y="-3.84375">−2</tspan>
      </text>
     </g>
    </g>
   </g>
   <g id="line2d_23">
    <path d="M 65.808295 122.671424 
L 73.377769 94.928326 
L 77.402045 81.026097 
L 80.659793 70.537872 
L 83.534277 62.023149 
L 86.025496 55.305769 
L 88.325083 49.711549 
L 90.433037 45.129422 
L 92.445176 41.263692 
L 94.361498 38.057877 
L 96.086188 35.580196 
L 97.715062 33.603814 
L 99.24812 32.074523 
L 100.685362 30.939237 
L 102.026787 30.145959 
L 103.368213 29.614813 
L 104.613822 29.360081 
L 105.859432 29.337857 
L 107.105041 29.550127 
L 108.350651 29.997945 
L 109.59626 30.68132 
L 110.937686 31.6794 
L 112.374928 33.047185 
L 113.907986 34.840315 
L 115.53686 37.113589 
L 117.26155 39.919474 
L 119.082056 43.306871 
L 121.094194 47.532647 
L 123.297965 52.705946 
L 125.693368 58.931048 
L 128.280403 66.304958 
L 131.05907 74.912481 
L 134.125186 85.145692 
L 137.670382 97.784057 
L 142.17374 114.73382 
L 155.396364 165.071637 
L 159.133192 178.103511 
L 162.295124 188.364351 
L 165.169607 196.965232 
L 167.756643 204.028908 
L 170.152045 209.931059 
L 172.355816 214.768318 
L 174.367955 218.652235 
L 176.188461 221.703505 
L 177.913151 224.171765 
L 179.542025 226.114079 
L 181.075083 227.589655 
L 182.512324 228.658033 
L 183.85375 229.377585 
L 185.09936 229.804402 
L 186.344969 229.998126 
L 187.590579 229.958492 
L 188.836188 229.685551 
L 190.081798 229.179611 
L 191.327407 228.441268 
L 192.668833 227.387426 
L 194.106074 225.962916 
L 195.639132 224.11082 
L 197.268006 221.773818 
L 198.992696 218.895887 
L 200.813202 215.424274 
L 202.825341 211.094074 
L 205.029112 205.79505 
L 207.424514 199.429165 
L 210.01155 191.916882 
L 212.981849 182.579721 
L 216.335413 171.272815 
L 220.35969 156.879151 
L 226.012841 135.73991 
L 234.540475 103.882079 
L 238.468936 90.091092 
L 241.726684 79.420977 
L 244.601167 70.728044 
L 247.188202 63.57254 
L 249.583605 57.572685 
L 251.787376 52.627285 
L 253.799514 48.623041 
L 255.715837 45.285727 
L 257.536343 42.56286 
L 259.165217 40.507947 
L 260.698275 38.910919 
L 262.135517 37.715897 
L 263.476942 36.867893 
L 264.818368 36.280398 
L 266.063977 35.969447 
L 267.309587 35.884968 
L 268.555196 36.026891 
L 269.800806 36.394533 
L 271.046415 36.986604 
L 272.387841 37.873045 
L 273.825083 39.105712 
L 275.35814 40.737926 
L 276.987014 42.823595 
L 278.711705 45.416177 
L 280.532211 48.567476 
L 282.448533 52.326248 
L 284.556488 56.957988 
L 286.856074 62.567533 
L 289.347293 69.247585 
L 292.125961 77.360727 
L 295.287893 87.32137 
L 298.928905 99.554733 
L 303.815527 116.825008 
L 315.888357 159.853437 
L 319.625186 172.180935 
L 322.787118 181.882534 
L 325.565785 189.723475 
L 328.057004 196.122799 
L 330.356591 201.441326 
L 332.464545 205.778841 
L 334.380868 209.247288 
L 336.201374 212.102932 
L 337.926064 214.39812 
L 339.459122 216.093141 
L 340.896364 217.380302 
L 342.333605 218.369979 
L 343.675031 219.021508 
L 344.92064 219.388739 
L 346.16625 219.525365 
L 347.41186 219.43037 
L 348.657469 219.103358 
L 349.903079 218.544591 
L 351.244504 217.684784 
L 352.58593 216.55966 
L 354.023171 215.064043 
L 355.556229 213.14522 
L 357.185103 210.752039 
L 359.00561 207.663367 
L 360.921932 203.965038 
L 363.029886 199.400673 
L 365.329473 193.870716 
L 367.820692 187.282759 
L 370.503543 179.555744 
L 373.473843 170.321386 
L 376.923223 158.843853 
L 381.139132 143.999093 
L 389.283502 114.269009 
L 394.840837 94.466878 
L 398.769298 81.272337 
L 402.027045 71.080496 
L 404.901529 62.799229 
L 407.488564 56.016646 
L 409.788151 50.587486 
L 411.896105 46.151049 
L 413.908244 42.429635 
L 415.72875 39.514983 
L 417.45344 37.163554 
L 419.082314 35.317689 
L 420.615372 33.918815 
L 422.052614 32.908997 
L 423.394039 32.23206 
L 424.639649 31.834373 
L 425.885258 31.659884 
L 427.130868 31.70912 
L 428.376477 31.982323 
L 429.622087 32.479437 
L 430.963512 33.264746 
L 432.304938 34.308309 
L 433.74218 35.711213 
L 435.275238 37.52929 
L 436.904112 39.819678 
L 438.628802 42.639549 
L 440.449308 46.044483 
L 442.461446 50.300566 
L 444.569401 55.286655 
L 446.868988 61.301113 
L 449.456023 68.723061 
L 452.330506 77.691461 
L 455.588254 88.634337 
L 459.420899 102.342548 
L 464.403337 121.056994 
L 476.092903 165.274925 
L 479.829731 178.3762 
L 482.991663 188.694215 
L 485.770331 197.048849 
L 487.399205 201.595817 
L 487.399205 201.595817 
" clip-path="url(#pee14e54982)" style="fill: none; stroke: #2a6fbb; stroke-width: 1.7; stroke-linecap: square"/>
   </g>
   <g id="line2d_24">
    <path d="M 65.808295 146.433733 
L 71.269814 127.080856 
L 80.276529 95.152236 
L 84.20499 82.093448 
L 87.462738 72.017998 
L 90.241405 64.108723 
L 92.82844 57.400393 
L 95.128027 52.021377 
L 97.331798 47.419046 
L 99.343936 43.714884 
L 101.260258 40.648999 
L 102.984948 38.289679 
L 104.613822 36.420767 
L 106.14688 34.989473 
L 107.584122 33.942864 
L 108.925548 33.228549 
L 110.266973 32.77131 
L 111.512583 32.579249 
L 112.758192 32.612508 
L 114.003802 32.871652 
L 115.249411 33.356401 
L 116.590837 34.129418 
L 117.932262 35.160229 
L 119.369504 36.546637 
L 120.902562 38.340713 
L 122.531436 40.594454 
L 124.256126 43.358853 
L 126.172448 46.869242 
L 128.184587 51.030175 
L 130.388357 56.116527 
L 132.78376 62.234089 
L 135.370795 69.478607 
L 138.245279 78.229953 
L 141.407211 88.597197 
L 145.144039 101.65049 
L 150.126477 119.935374 
L 160.857882 159.537891 
L 164.882159 173.393224 
L 168.235723 184.160951 
L 171.206023 192.961656 
L 173.888874 200.216438 
L 176.284277 206.068255 
L 178.488048 210.88195 
L 180.500186 214.766438 
L 182.416508 217.98847 
L 184.141198 220.473981 
L 185.770072 222.450118 
L 187.30313 223.973178 
L 188.740372 225.099472 
L 190.081798 225.884155 
L 191.423223 226.409191 
L 192.668833 226.66277 
L 193.914442 226.690157 
L 195.160052 226.490962 
L 196.405661 226.065325 
L 197.747087 225.354544 
L 199.088512 224.383699 
L 200.525754 223.057903 
L 202.058812 221.32297 
L 203.687686 219.124437 
L 205.412376 216.408924 
L 207.232882 213.12565 
L 209.245021 209.021691 
L 211.448791 203.98816 
L 213.844194 197.92555 
L 216.431229 190.750045 
L 219.305713 182.101717 
L 222.563461 171.571786 
L 226.396105 158.406772 
L 231.665992 139.435726 
L 241.535052 103.804751 
L 245.463512 90.549453 
L 248.72126 80.307726 
L 251.595744 71.974095 
L 254.182779 65.124723 
L 256.578182 59.393046 
L 258.781952 54.680974 
L 260.794091 50.877985 
L 262.710413 47.721072 
L 264.435103 45.28247 
L 266.063977 43.339871 
L 267.597035 41.838564 
L 269.034277 40.723852 
L 270.375702 39.942075 
L 271.717128 39.41197 
L 272.962738 39.146099 
L 274.208347 39.098577 
L 275.453957 39.269188 
L 276.699566 39.657169 
L 278.040992 40.31658 
L 279.382417 41.224257 
L 280.819659 42.468846 
L 282.352717 44.101606 
L 283.981591 46.174375 
L 285.706281 48.738545 
L 287.526787 51.843849 
L 289.538926 55.732652 
L 291.64688 60.29426 
L 293.946467 65.80233 
L 296.533502 72.6062 
L 299.407986 80.83557 
L 302.665733 90.882403 
L 306.498378 103.462031 
L 311.768264 121.594768 
L 321.73314 155.991288 
L 325.661601 168.670391 
L 328.919349 178.461773 
L 331.793833 186.413617 
L 334.380868 192.926413 
L 336.680455 198.143091 
L 338.788409 202.410719 
L 340.800548 205.99511 
L 342.621054 208.805213 
L 344.345744 211.072694 
L 345.974618 212.85041 
L 347.507676 214.192702 
L 348.944917 215.154158 
L 350.286343 215.78857 
L 351.531952 216.148067 
L 352.777562 216.285037 
L 354.023171 216.198773 
L 355.268781 215.889314 
L 356.51439 215.357515 
L 357.855816 214.538128 
L 359.293058 213.379965 
L 360.7303 211.937143 
L 362.263357 210.091839 
L 363.988048 207.649358 
L 365.808554 204.66589 
L 367.724876 201.095752 
L 369.832831 196.686122 
L 372.132417 191.334528 
L 374.623636 184.94727 
L 377.306488 177.446733 
L 380.372603 168.183074 
L 383.9178 156.716146 
L 388.325341 141.650735 
L 403.847552 87.863472 
L 407.296932 77.076766 
L 410.267231 68.477713 
L 412.950083 61.368211 
L 415.345486 55.619202 
L 417.549256 50.877389 
L 419.657211 46.867452 
L 421.573533 43.691724 
L 423.394039 41.105605 
L 425.022913 39.158 
L 426.555971 37.647958 
L 427.993213 36.52145 
L 429.430455 35.678338 
L 430.77188 35.149582 
L 432.01749 34.883334 
L 433.263099 34.834519 
L 434.508709 35.003723 
L 435.754318 35.391117 
L 437.095744 36.052001 
L 438.437169 36.964662 
L 439.874411 38.220042 
L 441.407469 39.872302 
L 443.036343 41.976753 
L 444.761033 44.588696 
L 446.581539 47.762009 
L 448.497862 51.547491 
L 450.605816 56.214145 
L 452.905403 61.869204 
L 455.396622 68.607847 
L 458.175289 76.798982 
L 461.241405 86.55332 
L 464.786601 98.59611 
L 469.194143 114.392595 
L 484.812169 171.124919 
L 487.399205 179.657358 
L 487.399205 179.657358 
" clip-path="url(#pee14e54982)" style="fill: none; stroke-dasharray: 5.55,2.4; stroke-dashoffset: 0; stroke: #2a6fbb; stroke-width: 1.5"/>
   </g>
   <g id="line2d_25">
    <path d="M 65.808295 229.601815 
L 67.820434 229.487225 
L 69.832572 229.143772 
L 71.844711 228.572401 
L 73.856849 227.774688 
L 75.964804 226.698625 
L 78.168574 225.31417 
L 80.372345 223.668989 
L 82.671932 221.680193 
L 85.163151 219.220315 
L 87.750186 216.340603 
L 90.433037 213.018121 
L 93.307521 209.096877 
L 96.373636 204.526465 
L 99.631384 199.263954 
L 103.176581 193.105003 
L 107.105041 185.816463 
L 111.512583 177.150848 
L 116.686653 166.469188 
L 123.872862 151.071799 
L 136.712221 123.513421 
L 142.077924 112.581562 
L 146.485465 104.08822 
L 150.413926 96.986297 
L 153.959122 91.020834 
L 157.21687 85.955634 
L 160.282986 81.586688 
L 163.157469 77.867031 
L 165.84032 74.742777 
L 168.427355 72.062499 
L 170.918574 69.801502 
L 173.313977 67.932586 
L 175.613564 66.426745 
L 177.817335 65.253779 
L 179.925289 64.382849 
L 181.937428 63.782956 
L 183.949566 63.410818 
L 185.961705 63.267458 
L 187.973843 63.353273 
L 189.985981 63.668026 
L 191.99812 64.21085 
L 194.010258 64.980248 
L 196.118213 66.026982 
L 198.321983 67.381234 
L 200.525754 68.996781 
L 202.825341 70.955367 
L 205.220744 73.2843 
L 207.807779 76.120088 
L 210.49063 79.398978 
L 213.365114 83.27597 
L 216.431229 87.80225 
L 219.688977 93.021654 
L 223.234174 99.138477 
L 227.066818 106.204477 
L 231.378543 114.630515 
L 236.456798 125.06176 
L 243.259742 139.589349 
L 257.727975 170.622843 
L 262.902045 181.11247 
L 267.309587 189.557466 
L 271.238048 196.607611 
L 274.783244 202.519783 
L 278.040992 207.530928 
L 281.107107 211.844907 
L 283.981591 215.509749 
L 286.664442 218.580253 
L 289.251477 221.206582 
L 291.64688 223.334958 
L 293.946467 225.095772 
L 296.150238 226.517642 
L 298.354008 227.674807 
L 300.461963 228.530433 
L 302.474101 229.115587 
L 304.48624 229.472902 
L 306.498378 229.601393 
L 308.510517 229.500705 
L 310.522655 229.171117 
L 312.534793 228.613536 
L 314.546932 227.8295 
L 316.654886 226.767602 
L 318.858657 225.397732 
L 321.062428 223.76686 
L 323.362014 221.79265 
L 325.757417 219.447899 
L 328.344452 216.595624 
L 331.027304 213.300366 
L 333.901787 209.406754 
L 336.967903 204.863892 
L 340.225651 199.628283 
L 343.770847 193.495614 
L 347.603492 186.414731 
L 351.915217 177.974922 
L 356.993471 167.531717 
L 363.892231 152.788364 
L 377.9772 122.570488 
L 383.247087 111.875433 
L 387.654628 103.423315 
L 391.583089 96.365558 
L 395.128285 90.44556 
L 398.386033 85.426485 
L 401.452149 81.104447 
L 404.326632 77.431574 
L 407.009483 74.353199 
L 409.596519 71.718973 
L 411.991921 69.583048 
L 414.291508 67.814801 
L 416.495279 66.385663 
L 418.69905 65.22111 
L 420.807004 64.35833 
L 422.819143 63.766285 
L 424.831281 63.402041 
L 426.843419 63.2666 
L 428.855558 63.360336 
L 430.867696 63.682991 
L 432.879835 64.233674 
L 434.891973 65.01087 
L 436.999928 66.065681 
L 439.203698 67.428253 
L 441.407469 69.051964 
L 443.707056 71.018875 
L 446.102459 73.356235 
L 448.689494 76.200808 
L 451.372345 79.48842 
L 454.246829 83.374269 
L 457.312944 87.909387 
L 460.570692 93.137429 
L 464.115888 99.2627 
L 467.948533 106.336637 
L 472.260258 114.770021 
L 477.338512 125.207651 
L 484.141457 139.739772 
L 487.399205 146.80181 
L 487.399205 146.80181 
" clip-path="url(#pee14e54982)" style="fill: none; stroke: #5a9e6f; stroke-width: 1.7; stroke-linecap: square"/>
   </g>
   <g id="line2d_26">
    <path d="M 65.808295 146.433733 
L 67.053905 160.359611 
L 68.299514 171.938958 
L 69.545124 181.550053 
L 70.790733 189.507858 
L 72.036343 196.074633 
L 73.281952 201.46878 
L 74.527562 205.872202 
L 75.773171 209.43643 
L 76.922965 212.091197 
L 78.072758 214.222019 
L 79.222552 215.899334 
L 80.372345 217.182724 
L 81.522138 218.122619 
L 82.671932 218.761727 
L 83.821725 219.136248 
L 84.971519 219.276897 
L 86.217128 219.195513 
L 87.558554 218.867157 
L 88.995795 218.270632 
L 90.528853 217.387969 
L 92.253543 216.126902 
L 94.169866 214.432565 
L 96.27782 212.255335 
L 98.577407 209.550447 
L 101.164442 206.145162 
L 103.94311 202.111086 
L 107.009225 197.262087 
L 110.458605 191.372876 
L 114.29125 184.369489 
L 118.602975 176.015907 
L 123.777045 165.488956 
L 131.05907 150.115687 
L 143.419349 124.00216 
L 148.785052 113.231859 
L 153.192593 104.861628 
L 157.121054 97.860788 
L 160.66625 91.978658 
L 163.923998 86.982812 
L 166.990114 82.672363 
L 169.864597 79.001241 
L 172.643264 75.81267 
L 175.2303 73.177219 
L 177.721519 70.954591 
L 180.116921 69.117977 
L 182.416508 67.638792 
L 184.620279 66.487278 
L 186.728233 65.633054 
L 188.836188 65.02319 
L 190.848326 64.6707 
L 192.860465 64.543519 
L 194.872603 64.641995 
L 196.884742 64.965858 
L 198.89688 65.514216 
L 201.004835 66.327815 
L 203.112789 67.383673 
L 205.31656 68.743078 
L 207.616147 70.435292 
L 210.01155 72.488757 
L 212.502769 74.930546 
L 215.089804 77.785737 
L 217.772655 81.076735 
L 220.647138 84.95758 
L 223.713254 89.47755 
L 226.971002 94.67851 
L 230.516198 100.761673 
L 234.444659 107.956285 
L 238.8522 116.505256 
L 244.122087 127.235776 
L 251.499928 142.820556 
L 263.668574 168.541902 
L 269.034277 179.328559 
L 273.537634 187.893207 
L 277.466095 194.901495 
L 281.011291 200.791259 
L 284.364855 205.935686 
L 287.430971 210.241674 
L 290.305455 213.908338 
L 293.084122 217.092371 
L 295.671157 219.723417 
L 298.162376 221.941659 
L 300.557779 223.77394 
L 302.857366 225.248875 
L 305.061136 226.396247 
L 307.169091 227.24646 
L 309.277045 227.852276 
L 311.289184 228.200878 
L 313.301322 228.324161 
L 315.313461 228.221785 
L 317.325599 227.894033 
L 319.337738 227.341807 
L 321.445692 226.524189 
L 323.553647 225.464359 
L 325.757417 224.100865 
L 328.057004 222.404468 
L 330.452407 220.34675 
L 332.943626 217.900672 
L 335.530661 215.041188 
L 338.213512 211.745934 
L 341.087996 207.860773 
L 344.154112 203.336504 
L 347.41186 198.131352 
L 350.957056 192.0441 
L 354.885517 184.845575 
L 359.293058 176.293035 
L 364.562944 165.559449 
L 371.940785 149.972678 
L 384.109432 124.254029 
L 389.475134 113.470875 
L 393.978492 104.910198 
L 397.906952 97.906099 
L 401.452149 92.020655 
L 404.805713 86.880754 
L 407.871829 82.579245 
L 410.746312 78.917052 
L 413.429163 75.84111 
L 416.016198 73.202327 
L 418.507417 70.976383 
L 420.90282 69.136495 
L 423.202407 67.654098 
L 425.406178 66.499455 
L 427.514132 65.6422 
L 429.622087 65.029278 
L 431.634225 64.673853 
L 433.646364 64.543726 
L 435.658502 64.639257 
L 437.67064 64.960182 
L 439.682779 65.505618 
L 441.790733 66.316181 
L 443.898688 67.369039 
L 446.102459 68.725354 
L 448.402045 70.414407 
L 450.797448 72.46466 
L 453.288667 74.903207 
L 455.875702 77.755155 
L 458.558554 81.042937 
L 461.433037 84.92052 
L 464.499153 89.437241 
L 467.756901 94.635031 
L 471.302097 100.715103 
L 475.230558 107.906754 
L 479.638099 116.453025 
L 484.907986 127.181224 
L 487.399205 132.391938 
L 487.399205 132.391938 
" clip-path="url(#pee14e54982)" style="fill: none; stroke-dasharray: 5.55,2.4; stroke-dashoffset: 0; stroke: #5a9e6f; stroke-width: 1.5"/>
   </g>
   <g id="line2d_27">
    <path d="M 65.808295 132.389248 
L 72.132159 126.251339 
L 77.497862 121.342502 
L 82.288667 117.250557 
L 86.696209 113.768868 
L 90.816302 110.789077 
L 94.744762 108.218058 
L 98.481591 106.034936 
L 102.026787 104.21391 
L 105.476167 102.686545 
L 108.829731 101.441135 
L 112.087479 100.463893 
L 115.345227 99.720905 
L 118.507159 99.227383 
L 121.669091 98.960477 
L 124.831023 98.921471 
L 127.992955 99.11055 
L 131.154886 99.526807 
L 134.316818 100.168245 
L 137.574566 101.061376 
L 140.832314 102.185716 
L 144.185878 103.578581 
L 147.635258 105.252581 
L 151.180455 107.218124 
L 154.917283 109.545829 
L 158.845744 112.259231 
L 162.965837 115.376631 
L 167.373378 118.990999 
L 172.164184 123.208718 
L 177.529886 128.23396 
L 183.85375 134.473799 
L 192.381384 143.228605 
L 208.670124 160.001066 
L 215.089804 166.254315 
L 220.551322 171.27049 
L 225.437944 175.45939 
L 229.845486 178.953583 
L 233.965579 181.946287 
L 237.894039 184.530623 
L 241.630868 186.727231 
L 245.176064 188.561705 
L 248.625444 190.102687 
L 251.979008 191.361766 
L 255.236756 192.352619 
L 258.494504 193.109479 
L 261.656436 193.616647 
L 264.818368 193.89731 
L 267.9803 193.950121 
L 271.142231 193.774826 
L 274.304163 193.372267 
L 277.466095 192.744376 
L 280.723843 191.864974 
L 283.981591 190.754064 
L 287.335155 189.374638 
L 290.784535 187.713978 
L 294.329731 185.761555 
L 298.06656 183.446943 
L 301.995021 180.746399 
L 306.115114 177.641383 
L 310.522655 174.038902 
L 315.313461 169.832383 
L 320.679163 164.81741 
L 326.907211 158.682859 
L 335.243213 150.136199 
L 352.394298 132.483955 
L 358.718161 126.341106 
L 364.083864 121.426722 
L 368.874669 117.328838 
L 373.282211 113.840923 
L 377.402304 110.854703 
L 381.330764 108.277054 
L 385.067593 106.08722 
L 388.612789 104.259501 
L 392.062169 102.72536 
L 395.415733 101.473149 
L 398.673481 100.489135 
L 401.931229 99.739246 
L 405.093161 99.238935 
L 408.255093 98.965187 
L 411.417025 98.919314 
L 414.578957 99.101538 
L 417.740888 99.510983 
L 420.90282 100.145684 
L 424.160568 101.031989 
L 427.418316 102.149652 
L 430.77188 103.535836 
L 434.22126 105.203204 
L 437.766457 107.162226 
L 441.503285 109.483424 
L 445.431746 112.190437 
L 449.551839 115.301684 
L 453.95938 118.910148 
L 458.750186 123.122305 
L 464.115888 128.142451 
L 470.439752 134.377911 
L 478.967386 143.129734 
L 487.399205 151.897508 
L 487.399205 151.897508 
" clip-path="url(#pee14e54982)" style="fill: none; stroke: #9b5b9e; stroke-width: 1.7; stroke-linecap: square"/>
   </g>
   <g id="line2d_28">
    <path d="M 65.808295 146.433733 
L 67.724618 142.750378 
L 69.736756 139.357748 
L 71.940527 136.065449 
L 74.431746 132.743029 
L 77.210413 129.407524 
L 80.372345 125.963188 
L 83.917541 122.437546 
L 87.750186 118.945186 
L 91.678647 115.663529 
L 95.607107 112.665015 
L 99.439752 110.010526 
L 103.176581 107.685744 
L 106.817593 105.679168 
L 110.362789 103.97945 
L 113.812169 102.574236 
L 117.165733 101.449771 
L 120.423481 100.590884 
L 123.585413 99.981152 
L 126.747345 99.594743 
L 129.909277 99.43339 
L 133.071209 99.497794 
L 136.23314 99.787597 
L 139.395072 100.301378 
L 142.557004 101.036652 
L 145.814752 102.02212 
L 149.168316 103.272921 
L 152.617696 104.802534 
L 156.162893 106.622374 
L 159.803905 108.741347 
L 163.63655 111.23074 
L 167.660826 114.11144 
L 171.972552 117.476117 
L 176.571725 121.349148 
L 181.649979 125.919782 
L 187.494762 131.490869 
L 194.680971 138.666254 
L 220.263874 164.508791 
L 225.917025 169.732751 
L 230.899463 174.043268 
L 235.498636 177.731384 
L 239.714545 180.833892 
L 243.738822 183.521943 
L 247.571467 185.814212 
L 251.212479 187.734871 
L 254.757676 189.352496 
L 258.11124 190.644463 
L 261.464804 191.697699 
L 264.722552 192.486845 
L 267.884483 193.028384 
L 271.046415 193.346242 
L 274.208347 193.438894 
L 277.370279 193.305894 
L 280.532211 192.947881 
L 283.694143 192.366574 
L 286.95189 191.537062 
L 290.209638 190.477712 
L 293.563202 189.152831 
L 297.012583 187.549522 
L 300.557779 185.657017 
L 304.294607 183.40624 
L 308.223068 180.773089 
L 312.343161 177.738533 
L 316.750702 174.210537 
L 321.541508 170.083141 
L 326.811395 165.243974 
L 332.943626 159.302024 
L 340.99218 151.168519 
L 360.059587 131.781045 
L 366.287634 125.839624 
L 371.653337 121.024169 
L 376.444143 117.019356 
L 380.851684 113.620101 
L 384.971777 110.718638 
L 388.900238 108.222848 
L 392.637066 106.11126 
L 396.182262 104.357634 
L 399.631643 102.89502 
L 402.985207 101.711422 
L 406.242955 100.792833 
L 409.500702 100.106821 
L 412.662634 99.66672 
L 415.824566 99.451128 
L 418.986498 99.461079 
L 422.14843 99.696526 
L 425.310362 100.156337 
L 428.472293 100.838307 
L 431.730041 101.769833 
L 435.083605 102.966436 
L 438.437169 104.397756 
L 441.982366 106.157498 
L 445.623378 108.21767 
L 449.456023 110.648772 
L 453.4803 113.472689 
L 457.696209 116.705518 
L 462.295382 120.520494 
L 467.27782 124.948974 
L 472.930971 130.280538 
L 479.733915 137.017184 
L 487.399205 144.850355 
L 487.399205 144.850355 
" clip-path="url(#pee14e54982)" style="fill: none; stroke-dasharray: 5.55,2.4; stroke-dashoffset: 0; stroke: #9b5b9e; stroke-width: 1.5"/>
   </g>
   <g id="patch_3">
    <path d="M 44.72875 240.045391 
L 44.72875 19.284141 
" style="fill: none; stroke: #000000; stroke-width: 0.8; stroke-linejoin: miter; stroke-linecap: square"/>
   </g>
   <g id="patch_4">
    <path d="M 44.72875 240.045391 
L 508.47875 240.045391 
" style="fill: none; stroke: #000000; stroke-width: 0.8; stroke-linejoin: miter; stroke-linecap: square"/>
   </g>
   <g id="text_8">
    <text style="font: 8.5px 'Arial', 'Helvetica', 'DejaVu Sans', sans-serif; text-anchor: start" x="44.72875" y="13.284141" transform="rotate(-0 44.72875 13.284141)">Disturbance-observer diagnostic under strong disturbance</text>
   </g>
   <g id="legend_1">
    <g id="line2d_29">
     <path d="M 179.45175 27.668141 
L 186.81175 27.668141 
L 194.17175 27.668141 
" style="fill: none; stroke: #2a6fbb; stroke-width: 1.7; stroke-linecap: square"/>
    </g>
    <g id="text_9">
     <!-- true $d_x$ -->
     <g transform="translate(199.29175 29.908141)">
      <text>
       <tspan style="font: 6.4px 'Arial'" x="0 1.775513 3.903641 7.457794 11.011948" y="-0.140625">true </tspan>
       <tspan style="font: oblique 6.4px 'DejaVu Sans'" x="12.78746" y="-0.140625">d</tspan>
       <tspan style="font: oblique 4.48px 'DejaVu Sans'" x="16.844009" y="0.9093749999999998">x</tspan>
      </text>
     </g>
    </g>
    <g id="line2d_30">
     <path d="M 179.45175 39.188141 
L 186.81175 39.188141 
L 194.17175 39.188141 
" style="fill: none; stroke-dasharray: 5.55,2.4; stroke-dashoffset: 0; stroke: #2a6fbb; stroke-width: 1.5"/>
    </g>
    <g id="text_10">
     <!-- estimated $\hat d_x$ -->
     <g transform="translate(199.29175 41.428141)">
      <text>
       <tspan style="font: 6.4px 'Arial'" x="0 3.554153 6.749466 8.524979 9.944763 15.268204 18.822357 20.59787 24.152023 27.706177" y="-0.8093750000000002">estimated </tspan>
       <tspan style="font: 6.4px 'DejaVu Sans'" x="33.020752" y="-2.890625">̂</tspan>
       <tspan style="font: oblique 6.4px 'DejaVu Sans'" x="29.481689" y="-0.8093750000000002">d</tspan>
       <tspan style="font: oblique 4.48px 'DejaVu Sans'" x="33.599489" y="0.24062499999999964">x</tspan>
      </text>
     </g>
    </g>
    <g id="line2d_31">
     <path d="M 248.57175 27.668141 
L 255.93175 27.668141 
L 263.29175 27.668141 
" style="fill: none; stroke: #5a9e6f; stroke-width: 1.7; stroke-linecap: square"/>
    </g>
    <g id="text_11">
     <!-- true $d_y$ -->
     <g transform="translate(268.41175 29.908141)">
      <text>
       <tspan style="font: 6.4px 'Arial'" x="0 1.775513 3.903641 7.457794 11.011948" y="-0.140625">true </tspan>
       <tspan style="font: oblique 6.4px 'DejaVu Sans'" x="12.78746" y="-0.140625">d</tspan>
       <tspan style="font: oblique 4.48px 'DejaVu Sans'" x="16.844009" y="0.9093749999999998">y</tspan>
      </text>
     </g>
    </g>
    <g id="line2d_32">
     <path d="M 248.57175 40.084141 
L 255.93175 40.084141 
L 263.29175 40.084141 
" style="fill: none; stroke-dasharray: 5.55,2.4; stroke-dashoffset: 0; stroke: #5a9e6f; stroke-width: 1.5"/>
    </g>
    <g id="text_12">
     <!-- estimated $\hat d_y$ -->
     <g transform="translate(268.41175 42.324141)">
      <text>
       <tspan style="font: 6.4px 'Arial'" x="0 3.554153 6.749466 8.524979 9.944763 15.268204 18.822357 20.59787 24.152023 27.706177" y="-0.8093750000000002">estimated </tspan>
       <tspan style="font: 6.4px 'DejaVu Sans'" x="33.020752" y="-2.890625">̂</tspan>
       <tspan style="font: oblique 6.4px 'DejaVu Sans'" x="29.481689" y="-0.8093750000000002">d</tspan>
       <tspan style="font: oblique 4.48px 'DejaVu Sans'" x="33.599489" y="0.24062499999999964">y</tspan>
      </text>
     </g>
    </g>
    <g id="line2d_33">
     <path d="M 317.69175 27.668141 
L 325.05175 27.668141 
L 332.41175 27.668141 
" style="fill: none; stroke: #9b5b9e; stroke-width: 1.7; stroke-linecap: square"/>
    </g>
    <g id="text_13">
     <!-- true $d_z$ -->
     <g transform="translate(337.53175 29.908141)">
      <text>
       <tspan style="font: 6.4px 'Arial'" x="0 1.775513 3.903641 7.457794 11.011948" y="-0.140625">true </tspan>
       <tspan style="font: oblique 6.4px 'DejaVu Sans'" x="12.78746" y="-0.140625">d</tspan>
       <tspan style="font: oblique 4.48px 'DejaVu Sans'" x="16.844009" y="0.9093749999999998">z</tspan>
      </text>
     </g>
    </g>
    <g id="line2d_34">
     <path d="M 317.69175 39.188141 
L 325.05175 39.188141 
L 332.41175 39.188141 
" style="fill: none; stroke-dasharray: 5.55,2.4; stroke-dashoffset: 0; stroke: #9b5b9e; stroke-width: 1.5"/>
    </g>
    <g id="text_14">
     <!-- estimated $\hat d_z$ -->
     <g transform="translate(337.53175 41.428141)">
      <text>
       <tspan style="font: 6.4px 'Arial'" x="0 3.554153 6.749466 8.524979 9.944763 15.268204 18.822357 20.59787 24.152023 27.706177" y="-0.8093750000000002">estimated </tspan>
       <tspan style="font: 6.4px 'DejaVu Sans'" x="33.020752" y="-2.890625">̂</tspan>
       <tspan style="font: oblique 6.4px 'DejaVu Sans'" x="29.481689" y="-0.8093750000000002">d</tspan>
       <tspan style="font: oblique 4.48px 'DejaVu Sans'" x="33.599489" y="0.24062499999999964">z</tspan>
      </text>
     </g>
    </g>
   </g>
  </g>
  <g id="axes_2">
   <g id="patch_5">
    <path d="M 44.72875 352.531413 
L 508.47875 352.531413 
L 508.47875 252.185391 
L 44.72875 252.185391 
z
" style="fill: #ffffff"/>
   </g>
   <g id="matplotlib.axis_3">
    <g id="xtick_6">
     <g id="line2d_35">
      <path d="M 65.808295 352.531413 
L 65.808295 252.185391 
" clip-path="url(#p4cdd276166)" style="fill: none; stroke: #b0b0b0; stroke-opacity: 0.3; stroke-width: 0.8; stroke-linecap: square"/>
     </g>
     <g id="line2d_36">
      <g>
       <use xlink:href="#m83fc7a7171" x="65.808295" y="352.531413" style="stroke: #000000; stroke-width: 0.8"/>
      </g>
     </g>
     <g id="text_15">
      <text style="font: 8px 'Arial', 'Helvetica', 'DejaVu Sans', sans-serif; text-anchor: middle" x="65.808295" y="365.257663" transform="rotate(-0 65.808295 365.257663)">0</text>
     </g>
    </g>
    <g id="xtick_7">
     <g id="line2d_37">
      <path d="M 161.624411 352.531413 
L 161.624411 252.185391 
" clip-path="url(#p4cdd276166)" style="fill: none; stroke: #b0b0b0; stroke-opacity: 0.3; stroke-width: 0.8; stroke-linecap: square"/>
     </g>
     <g id="line2d_38">
      <g>
       <use xlink:href="#m83fc7a7171" x="161.624411" y="352.531413" style="stroke: #000000; stroke-width: 0.8"/>
      </g>
     </g>
     <g id="text_16">
      <text style="font: 8px 'Arial', 'Helvetica', 'DejaVu Sans', sans-serif; text-anchor: middle" x="161.624411" y="365.257663" transform="rotate(-0 161.624411 365.257663)">5</text>
     </g>
    </g>
    <g id="xtick_8">
     <g id="line2d_39">
      <path d="M 257.440527 352.531413 
L 257.440527 252.185391 
" clip-path="url(#p4cdd276166)" style="fill: none; stroke: #b0b0b0; stroke-opacity: 0.3; stroke-width: 0.8; stroke-linecap: square"/>
     </g>
     <g id="line2d_40">
      <g>
       <use xlink:href="#m83fc7a7171" x="257.440527" y="352.531413" style="stroke: #000000; stroke-width: 0.8"/>
      </g>
     </g>
     <g id="text_17">
      <text style="font: 8px 'Arial', 'Helvetica', 'DejaVu Sans', sans-serif; text-anchor: middle" x="257.440527" y="365.257663" transform="rotate(-0 257.440527 365.257663)">10</text>
     </g>
    </g>
    <g id="xtick_9">
     <g id="line2d_41">
      <path d="M 353.256643 352.531413 
L 353.256643 252.185391 
" clip-path="url(#p4cdd276166)" style="fill: none; stroke: #b0b0b0; stroke-opacity: 0.3; stroke-width: 0.8; stroke-linecap: square"/>
     </g>
     <g id="line2d_42">
      <g>
       <use xlink:href="#m83fc7a7171" x="353.256643" y="352.531413" style="stroke: #000000; stroke-width: 0.8"/>
      </g>
     </g>
     <g id="text_18">
      <text style="font: 8px 'Arial', 'Helvetica', 'DejaVu Sans', sans-serif; text-anchor: middle" x="353.256643" y="365.257663" transform="rotate(-0 353.256643 365.257663)">15</text>
     </g>
    </g>
    <g id="xtick_10">
     <g id="line2d_43">
      <path d="M 449.072758 352.531413 
L 449.072758 252.185391 
" clip-path="url(#p4cdd276166)" style="fill: none; stroke: #b0b0b0; stroke-opacity: 0.3; stroke-width: 0.8; stroke-linecap: square"/>
     </g>
     <g id="line2d_44">
      <g>
       <use xlink:href="#m83fc7a7171" x="449.072758" y="352.531413" style="stroke: #000000; stroke-width: 0.8"/>
      </g>
     </g>
     <g id="text_19">
      <text style="font: 8px 'Arial', 'Helvetica', 'DejaVu Sans', sans-serif; text-anchor: middle" x="449.072758" y="365.257663" transform="rotate(-0 449.072758 365.257663)">20</text>
     </g>
    </g>
    <g id="text_20">
     <text style="font: 8px 'Arial', 'Helvetica', 'DejaVu Sans', sans-serif; text-anchor: middle" x="276.60375" y="376.573913" transform="rotate(-0 276.60375 376.573913)">time [s]</text>
    </g>
   </g>
   <g id="matplotlib.axis_4">
    <g id="ytick_7">
     <g id="line2d_45">
      <path d="M 44.72875 350.52422 
L 508.47875 350.52422 
" clip-path="url(#p4cdd276166)" style="fill: none; stroke: #b0b0b0; stroke-opacity: 0.3; stroke-width: 0.8; stroke-linecap: square"/>
     </g>
     <g id="line2d_46">
      <g>
       <use xlink:href="#m669a2965d8" x="44.72875" y="350.52422" style="stroke: #000000; stroke-width: 0.8"/>
      </g>
     </g>
     <g id="text_21">
      <text style="font: 8px 'Arial', 'Helvetica', 'DejaVu Sans', sans-serif; text-anchor: end" x="37.72875" y="353.387345" transform="rotate(-0 37.72875 353.387345)">0.00</text>
     </g>
    </g>
    <g id="ytick_8">
     <g id="line2d_47">
      <path d="M 44.72875 330.657296 
L 508.47875 330.657296 
" clip-path="url(#p4cdd276166)" style="fill: none; stroke: #b0b0b0; stroke-opacity: 0.3; stroke-width: 0.8; stroke-linecap: square"/>
     </g>
     <g id="line2d_48">
      <g>
       <use xlink:href="#m669a2965d8" x="44.72875" y="330.657296" style="stroke: #000000; stroke-width: 0.8"/>
      </g>
     </g>
     <g id="text_22">
      <text style="font: 8px 'Arial', 'Helvetica', 'DejaVu Sans', sans-serif; text-anchor: end" x="37.72875" y="333.520421" transform="rotate(-0 37.72875 333.520421)">0.05</text>
     </g>
    </g>
    <g id="ytick_9">
     <g id="line2d_49">
      <path d="M 44.72875 310.790372 
L 508.47875 310.790372 
" clip-path="url(#p4cdd276166)" style="fill: none; stroke: #b0b0b0; stroke-opacity: 0.3; stroke-width: 0.8; stroke-linecap: square"/>
     </g>
     <g id="line2d_50">
      <g>
       <use xlink:href="#m669a2965d8" x="44.72875" y="310.790372" style="stroke: #000000; stroke-width: 0.8"/>
      </g>
     </g>
     <g id="text_23">
      <text style="font: 8px 'Arial', 'Helvetica', 'DejaVu Sans', sans-serif; text-anchor: end" x="37.72875" y="313.653497" transform="rotate(-0 37.72875 313.653497)">0.10</text>
     </g>
    </g>
    <g id="ytick_10">
     <g id="line2d_51">
      <path d="M 44.72875 290.923449 
L 508.47875 290.923449 
" clip-path="url(#p4cdd276166)" style="fill: none; stroke: #b0b0b0; stroke-opacity: 0.3; stroke-width: 0.8; stroke-linecap: square"/>
     </g>
     <g id="line2d_52">
      <g>
       <use xlink:href="#m669a2965d8" x="44.72875" y="290.923449" style="stroke: #000000; stroke-width: 0.8"/>
      </g>
     </g>
     <g id="text_24">
      <text style="font: 8px 'Arial', 'Helvetica', 'DejaVu Sans', sans-serif; text-anchor: end" x="37.72875" y="293.786574" transform="rotate(-0 37.72875 293.786574)">0.15</text>
     </g>
    </g>
    <g id="ytick_11">
     <g id="line2d_53">
      <path d="M 44.72875 271.056525 
L 508.47875 271.056525 
" clip-path="url(#p4cdd276166)" style="fill: none; stroke: #b0b0b0; stroke-opacity: 0.3; stroke-width: 0.8; stroke-linecap: square"/>
     </g>
     <g id="line2d_54">
      <g>
       <use xlink:href="#m669a2965d8" x="44.72875" y="271.056525" style="stroke: #000000; stroke-width: 0.8"/>
      </g>
     </g>
     <g id="text_25">
      <text style="font: 8px 'Arial', 'Helvetica', 'DejaVu Sans', sans-serif; text-anchor: end" x="37.72875" y="273.91965" transform="rotate(-0 37.72875 273.91965)">0.20</text>
     </g>
    </g>
    <g id="text_26">
     <!-- $\|d-\hat d\|$ -->
     <g transform="translate(16.24 316.358402) rotate(-90)">
      <text>
       <tspan style="font: 8px 'DejaVu Sans'" x="0 10.636719 23.976562 24.332031" y="-0.0 -0.0 -0.0 -2.59375">‖−‖̂</tspan>
       <tspan style="font: oblique 8px 'DejaVu Sans'" x="4 18.898438" y="-0.0">dd</tspan>
      </text>
     </g>
    </g>
   </g>
   <g id="line2d_55">
    <path d="M 65.808295 256.746573 
L 67.053905 270.93439 
L 68.299514 282.561323 
L 69.449308 291.367137 
L 70.599101 298.598608 
L 71.748895 304.487663 
L 72.898688 309.239095 
L 74.048481 313.036488 
L 75.198275 316.04582 
L 76.348068 318.416807 
L 77.497862 320.282615 
L 78.743471 321.867595 
L 80.084897 323.203805 
L 81.617955 324.41176 
L 83.630093 325.692159 
L 86.983657 327.514713 
L 102.410052 335.493081 
L 104.805455 336.361009 
L 106.817593 336.863877 
L 108.638099 337.094584 
L 110.362789 337.089686 
L 112.087479 336.857416 
L 113.907986 336.37403 
L 115.824308 335.630825 
L 118.123895 334.487006 
L 121.094194 332.739827 
L 127.801322 328.435497 
L 132.592128 325.526242 
L 136.23314 323.56553 
L 139.395072 322.109869 
L 142.17374 321.069033 
L 144.760775 320.335886 
L 147.156178 319.882721 
L 149.455764 319.664635 
L 151.755351 319.664027 
L 154.054938 319.879313 
L 156.450341 320.325925 
L 158.94156 321.019022 
L 161.528595 321.970467 
L 164.211446 323.191284 
L 167.08593 324.749761 
L 170.056229 326.619486 
L 173.218161 328.881329 
L 176.667541 331.628079 
L 181.362531 335.678887 
L 186.249153 339.835839 
L 188.452924 341.429184 
L 190.081798 342.350661 
L 191.423223 342.867601 
L 192.573017 343.092604 
L 193.72281 343.09347 
L 194.872603 342.869128 
L 196.118213 342.394755 
L 197.555455 341.602362 
L 199.375961 340.32737 
L 201.962996 338.21006 
L 213.077665 328.783852 
L 216.335413 326.461586 
L 219.305713 324.60831 
L 222.180196 323.075578 
L 224.863048 321.892554 
L 227.450083 320.992316 
L 229.941302 320.360532 
L 232.336705 319.979236 
L 234.732107 319.824713 
L 237.12751 319.897745 
L 239.522913 320.194538 
L 242.014132 320.731693 
L 244.601167 321.52162 
L 247.379835 322.611719 
L 250.350134 324.022897 
L 253.703698 325.873512 
L 257.727975 328.362495 
L 267.788667 334.71705 
L 270.279886 335.941134 
L 272.292025 336.696496 
L 274.112531 337.155431 
L 275.837221 337.368531 
L 277.561911 337.356649 
L 279.286601 337.126149 
L 281.202924 336.638722 
L 283.310878 335.86985 
L 285.897913 334.683464 
L 289.730558 332.654563 
L 297.012583 328.776928 
L 300.461963 327.215156 
L 303.528079 326.069099 
L 306.402562 325.233573 
L 309.181229 324.661735 
L 311.864081 324.337482 
L 314.546932 324.240686 
L 317.229783 324.371807 
L 319.912634 324.727931 
L 322.691302 325.326101 
L 325.565785 326.174854 
L 328.727717 327.347827 
L 332.368729 328.943868 
L 343.866663 334.187058 
L 346.16625 334.874313 
L 348.178388 335.255474 
L 350.094711 335.393076 
L 351.915217 335.303745 
L 353.735723 334.999065 
L 355.747862 334.428799 
L 357.951632 333.565161 
L 360.634483 332.26534 
L 364.754576 329.987838 
L 372.132417 325.907296 
L 375.869246 324.109702 
L 379.031178 322.826227 
L 381.905661 321.895769 
L 384.588512 321.262127 
L 387.079731 320.896064 
L 389.57095 320.755135 
L 392.062169 320.843794 
L 394.553388 321.161796 
L 397.044607 321.706622 
L 399.535826 322.475753 
L 402.122862 323.510327 
L 404.709897 324.784161 
L 407.392748 326.355105 
L 410.171415 328.242389 
L 413.141715 330.534193 
L 416.399463 333.33684 
L 420.232107 336.945962 
L 425.693626 342.439932 
L 429.622087 346.281319 
L 431.059329 347.401986 
L 431.921674 347.836738 
L 432.688202 347.970231 
L 433.358915 347.8577 
L 434.125444 347.498244 
L 435.179421 346.734192 
L 436.904112 345.154977 
L 440.449308 341.524092 
L 447.06062 334.781738 
L 450.893264 331.205163 
L 454.246829 328.377983 
L 457.312944 326.080768 
L 460.187428 324.199423 
L 462.966095 322.646217 
L 465.648946 321.405471 
L 468.235981 320.459251 
L 470.7272 319.787809 
L 473.122603 319.369423 
L 475.518006 319.176883 
L 477.913409 319.210313 
L 480.308812 319.466296 
L 482.800031 319.960738 
L 485.387066 320.707113 
L 487.399205 321.44 
L 487.399205 321.44 
" clip-path="url(#p4cdd276166)" style="fill: none; stroke: #a83232; stroke-width: 1.8; stroke-linecap: square"/>
   </g>
   <g id="patch_6">
    <path d="M 44.72875 352.531413 
L 44.72875 252.185391 
" style="fill: none; stroke: #000000; stroke-width: 0.8; stroke-linejoin: miter; stroke-linecap: square"/>
   </g>
   <g id="patch_7">
    <path d="M 44.72875 352.531413 
L 508.47875 352.531413 
" style="fill: none; stroke: #000000; stroke-width: 0.8; stroke-linejoin: miter; stroke-linecap: square"/>
   </g>
  </g>
 </g>
 <defs>
  <clipPath id="pee14e54982">
   <rect x="44.72875" y="19.284141" width="463.75" height="220.76125"/>
  </clipPath>
  <clipPath id="p4cdd276166">
   <rect x="44.72875" y="252.185391" width="463.75" height="100.346023"/>
  </clipPath>
 </defs>
</svg>
