<?xml version="1.0" encoding="utf-8" standalone="no"?>
<!DOCTYPE svg PUBLIC "-//W3C//DTD SVG 1.1//EN"
  "http://www.w3.org/Graphics/SVG/1.1/DTD/svg11.dtd">
<svg xmlns:xlink="http://www.w3.org/1999/xlink" width="520.493382pt" height="623.655337pt" viewBox="0 0 520.493382 623.655337" xmlns="http://www.w3.org/2000/svg" version="1.1">
 <metadata>
  <rdf:RDF xmlns:dc="http://purl.org/dc/elements/1.1/" xmlns:cc="http://creativecommons.org/ns#" xmlns:rdf="http://www.w3.org/1999/02/22-rdf-syntax-ns#">
   <cc:Work>
    <dc:type rdf:resource="http://purl.org/dc/dcmitype/StillImage"/>
    <dc:date>2026-05-25T19:08:39.153392</dc:date>
    <dc:format>image/svg+xml</dc:format>
    <dc:creator>
     <cc:Agent>
      <dc:title>Matplotlib v3.5.1, https://matplotlib.org/</dc:title>
     </cc:Agent>
    </dc:creator>
   </cc:Work>
  </rdf:RDF>
 </metadata>
 <defs>
  <style type="text/css">*{stroke-linejoin: round; stroke-linecap: butt}</style>
 </defs>
 <g id="figure_1">
  <g id="patch_1">
   <path d="M -0 623.655337 
L 520.493382 623.655337 
L 520.493382 0 
L -0 0 
z
" style="fill: #ffffff"/>
  </g>
  <g id="axes_1">
   <g id="patch_2">
    <path d="M 36.100655 178.130337 
L 258.413382 178.130337 
L 258.413382 21.852486 
L 36.100655 21.852486 
z
" style="fill: #ffffff"/>
   </g>
   <g id="matplotlib.axis_1">
    <g id="xtick_1">
     <g id="line2d_1">
      <path d="M 46.19885 178.130337 
L 46.19885 21.852486 
" clip-path="url(#p38088a674b)" style="fill: none; stroke: #b0b0b0; stroke-opacity: 0.3; stroke-width: 0.8; stroke-linecap: square"/>
     </g>
     <g id="line2d_2">
      <defs>
       <path id="mc3f0ec66da" d="M 0 0 
L 0 3.5 
" style="stroke: #000000; stroke-width: 0.8"/>
      </defs>
      <g>
       <use xlink:href="#mc3f0ec66da" x="46.19885" y="178.130337" style="stroke: #000000; stroke-width: 0.8"/>
      </g>
     </g>
     <g id="text_1">
      <text style="font: 8px 'sans-serif'; text-anchor: middle" x="46.19885" y="191.209087" transform="rotate(-0, 46.19885, 191.209087)">0.0</text>
     </g>
    </g>
    <g id="xtick_2">
     <g id="line2d_3">
      <path d="M 74.303416 178.130337 
L 74.303416 21.852486 
" clip-path="url(#p38088a674b)" style="fill: none; stroke: #b0b0b0; stroke-opacity: 0.3; stroke-width: 0.8; stroke-linecap: square"/>
     </g>
     <g id="line2d_4">
      <g>
       <use xlink:href="#mc3f0ec66da" x="74.303416" y="178.130337" style="stroke: #000000; stroke-width: 0.8"/>
      </g>
     </g>
     <g id="text_2">
      <text style="font: 8px 'sans-serif'; text-anchor: middle" x="74.303416" y="191.209087" transform="rotate(-0, 74.303416, 191.209087)">2.5</text>
     </g>
    </g>
    <g id="xtick_3">
     <g id="line2d_5">
      <path d="M 102.407983 178.130337 
L 102.407983 21.852486 
" clip-path="url(#p38088a674b)" style="fill: none; stroke: #b0b0b0; stroke-opacity: 0.3; stroke-width: 0.8; stroke-linecap: square"/>
     </g>
     <g id="line2d_6">
      <g>
       <use xlink:href="#mc3f0ec66da" x="102.407983" y="178.130337" style="stroke: #000000; stroke-width: 0.8"/>
      </g>
     </g>
     <g id="text_3">
      <text style="font: 8px 'sans-serif'; text-anchor: middle" x="102.407983" y="191.209087" transform="rotate(-0, 102.407983, 191.209087)">5.0</text>
     </g>
    </g>
    <g id="xtick_4">
     <g id="line2d_7">
      <path d="M 130.512549 178.130337 
L 130.512549 21.852486 
" clip-path="url(#p38088a674b)" style="fill: none; stroke: #b0b0b0; stroke-opacity: 0.3; stroke-width: 0.8; stroke-linecap: square"/>
     </g>
     <g id="line2d_8">
      <g>
       <use xlink:href="#mc3f0ec66da" x="130.512549" y="178.130337" style="stroke: #000000; stroke-width: 0.8"/>
      </g>
     </g>
     <g id="text_4">
      <text style="font: 8px 'sans-serif'; text-anchor: middle" x="130.512549" y="191.209087" transform="rotate(-0, 130.512549, 191.209087)">7.5</text>
     </g>
    </g>
    <g id="xtick_5">
     <g id="line2d_9">
      <path d="M 158.617115 178.130337 
L 158.617115 21.852486 
" clip-path="url(#p38088a674b)" style="fill: none; stroke: #b0b0b0; stroke-opacity: 0.3; stroke-width: 0.8; stroke-linecap: square"/>
     </g>
     <g id="line2d_10">
      <g>
       <use xlink:href="#mc3f0ec66da" x="158.617115" y="178.130337" style="stroke: #000000; stroke-width: 0.8"/>
      </g>
     </g>
     <g id="text_5">
      <text style="font: 8px 'sans-serif'; text-anchor: middle" x="158.617115" y="191.209087" transform="rotate(-0, 158.617115, 191.209087)">10.0</text>
     </g>
    </g>
    <g id="xtick_6">
     <g id="line2d_11">
      <path d="M 186.721681 178.130337 
L 186.721681 21.852486 
" clip-path="url(#p38088a674b)" style="fill: none; stroke: #b0b0b0; stroke-opacity: 0.3; stroke-width: 0.8; stroke-linecap: square"/>
     </g>
     <g id="line2d_12">
      <g>
       <use xlink:href="#mc3f0ec66da" x="186.721681" y="178.130337" style="stroke: #000000; stroke-width: 0.8"/>
      </g>
     </g>
     <g id="text_6">
      <text style="font: 8px 'sans-serif'; text-anchor: middle" x="186.721681" y="191.209087" transform="rotate(-0, 186.721681, 191.209087)">12.5</text>
     </g>
    </g>
    <g id="xtick_7">
     <g id="line2d_13">
      <path d="M 214.826248 178.130337 
L 214.826248 21.852486 
" clip-path="url(#p38088a674b)" style="fill: none; stroke: #b0b0b0; stroke-opacity: 0.3; stroke-width: 0.8; stroke-linecap: square"/>
     </g>
     <g id="line2d_14">
      <g>
       <use xlink:href="#mc3f0ec66da" x="214.826248" y="178.130337" style="stroke: #000000; stroke-width: 0.8"/>
      </g>
     </g>
     <g id="text_7">
      <text style="font: 8px 'sans-serif'; text-anchor: middle" x="214.826248" y="191.209087" transform="rotate(-0, 214.826248, 191.209087)">15.0</text>
     </g>
    </g>
    <g id="xtick_8">
     <g id="line2d_15">
      <path d="M 242.930814 178.130337 
L 242.930814 21.852486 
" clip-path="url(#p38088a674b)" style="fill: none; stroke: #b0b0b0; stroke-opacity: 0.3; stroke-width: 0.8; stroke-linecap: square"/>
     </g>
     <g id="line2d_16">
      <g>
       <use xlink:href="#mc3f0ec66da" x="242.930814" y="178.130337" style="stroke: #000000; stroke-width: 0.8"/>
      </g>
     </g>
     <g id="text_8">
      <text style="font: 8px 'sans-serif'; text-anchor: middle" x="242.930814" y="191.209087" transform="rotate(-0, 242.930814, 191.209087)">17.5</text>
     </g>
    </g>
    <g id="text_9">
     <text style="font: 8px 'sans-serif'; text-anchor: middle" x="147.257018" y="202.951587" transform="rotate(-0, 147.257018, 202.951587)">time [s]</text>
    </g>
   </g>
   <g id="matplotlib.axis_2">
    <g id="ytick_1">
     <g id="line2d_17">
      <path d="M 36.100655 161.53994 
L 258.413382 161.53994 
" clip-path="url(#p38088a674b)" style="fill: none; stroke: #b0b0b0; stroke-opacity: 0.3; stroke-width: 0.8; stroke-linecap: square"/>
     </g>
     <g id="line2d_18">
      <defs>
       <path id="ma4a115115f" d="M 0 0 
L -3.5 0 
" style="stroke: #000000; stroke-width: 0.8"/>
      </defs>
      <g>
       <use xlink:href="#ma4a115115f" x="36.100655" y="161.53994" style="stroke: #000000; stroke-width: 0.8"/>
      </g>
     </g>
     <g id="text_10">
      <text style="font: 8px 'sans-serif'; text-anchor: end" x="29.100655" y="164.579315" transform="rotate(-0, 29.100655, 164.579315)">0</text>
     </g>
    </g>
    <g id="ytick_2">
     <g id="line2d_19">
      <path d="M 36.100655 128.132035 
L 258.413382 128.132035 
" clip-path="url(#p38088a674b)" style="fill: none; stroke: #b0b0b0; stroke-opacity: 0.3; stroke-width: 0.8; stroke-linecap: square"/>
     </g>
     <g id="line2d_20">
      <g>
       <use xlink:href="#ma4a115115f" x="36.100655" y="128.132035" style="stroke: #000000; stroke-width: 0.8"/>
      </g>
     </g>
     <g id="text_11">
      <text style="font: 8px 'sans-serif'; text-anchor: end" x="29.100655" y="131.17141" transform="rotate(-0, 29.100655, 131.17141)">2</text>
     </g>
    </g>
    <g id="ytick_3">
     <g id="line2d_21">
      <path d="M 36.100655 94.724129 
L 258.413382 94.724129 
" clip-path="url(#p38088a674b)" style="fill: none; stroke: #b0b0b0; stroke-opacity: 0.3; stroke-width: 0.8; stroke-linecap: square"/>
     </g>
     <g id="line2d_22">
      <g>
       <use xlink:href="#ma4a115115f" x="36.100655" y="94.724129" style="stroke: #000000; stroke-width: 0.8"/>
      </g>
     </g>
     <g id="text_12">
      <text style="font: 8px 'sans-serif'; text-anchor: end" x="29.100655" y="97.763504" transform="rotate(-0, 29.100655, 97.763504)">4</text>
     </g>
    </g>
    <g id="ytick_4">
     <g id="line2d_23">
      <path d="M 36.100655 61.316223 
L 258.413382 61.316223 
" clip-path="url(#p38088a674b)" style="fill: none; stroke: #b0b0b0; stroke-opacity: 0.3; stroke-width: 0.8; stroke-linecap: square"/>
     </g>
     <g id="line2d_24">
      <g>
       <use xlink:href="#ma4a115115f" x="36.100655" y="61.316223" style="stroke: #000000; stroke-width: 0.8"/>
      </g>
     </g>
     <g id="text_13">
      <text style="font: 8px 'sans-serif'; text-anchor: end" x="29.100655" y="64.355598" transform="rotate(-0, 29.100655, 64.355598)">6</text>
     </g>
    </g>
    <g id="ytick_5">
     <g id="line2d_25">
      <path d="M 36.100655 27.908317 
L 258.413382 27.908317 
" clip-path="url(#p38088a674b)" style="fill: none; stroke: #b0b0b0; stroke-opacity: 0.3; stroke-width: 0.8; stroke-linecap: square"/>
     </g>
     <g id="line2d_26">
      <g>
       <use xlink:href="#ma4a115115f" x="36.100655" y="27.908317" style="stroke: #000000; stroke-width: 0.8"/>
      </g>
     </g>
     <g id="text_14">
      <text style="font: 8px 'sans-serif'; text-anchor: end" x="29.100655" y="30.947692" transform="rotate(-0, 29.100655, 30.947692)">8</text>
     </g>
    </g>
    <g id="text_15">
     <text style="font: 8px 'sans-serif'; text-anchor: middle" x="18.346905" y="99.991411" transform="rotate(-90, 18.346905, 99.991411)">barrier value h</text>
    </g>
   </g>
   <g id="line2d_27">
    <path d="M 46.206258 34.110288 
L 54.650609 32.666229 
L 55.776506 32.611166 
L 58.028975 32.242501 
L 58.593419 32.110774 
L 59.15443 32.110774 
L 60.843406 31.736087 
L 67.599123 30.809973 
L 69.850113 30.685077 
L 73.228109 30.677314 
L 73.792213 30.915052 
L 74.354352 31.296262 
L 74.91726 31.906034 
L 75.479949 32.816174 
L 76.043329 32.816174 
L 76.605626 36.058444 
L 77.168456 36.058444 
L 78.294731 40.604846 
L 81.110146 57.470268 
L 81.673178 60.909836 
L 82.23644 60.909836 
L 84.488129 74.241396 
L 86.176734 82.556347 
L 87.302786 86.922209 
L 88.991977 92.516544 
L 90.680563 96.817961 
L 91.242897 97.951373 
L 91.806607 97.951373 
L 92.369178 100.00585 
L 92.93218 100.00585 
L 94.058425 102.00676 
L 97.436076 107.269956 
L 97.999102 107.269956 
L 98.562048 109.144328 
L 99.124846 109.144328 
L 100.814852 111.980499 
L 103.632049 116.592422 
L 104.194687 118.335082 
L 104.757826 118.335082 
L 105.884093 120.183141 
L 107.57252 122.859734 
L 108.134946 122.859734 
L 108.698583 124.530902 
L 110.949731 127.907829 
L 111.512398 127.907829 
L 112.075009 130.4006 
L 112.637628 130.4006 
L 116.014506 135.208842 
L 117.140918 136.90831 
L 117.703695 136.90831 
L 118.266139 138.453118 
L 118.829235 139.331313 
L 119.391988 139.331313 
L 119.954816 141.533127 
L 120.514143 141.533127 
L 121.076912 143.059711 
L 121.639826 143.059711 
L 126.706936 149.115635 
L 127.269857 149.115635 
L 127.832988 150.997055 
L 128.395778 150.997055 
L 130.64664 153.414705 
L 131.211188 153.414705 
L 131.772781 153.996303 
L 132.337064 155.261529 
L 135.150804 158.133343 
L 135.713811 159.157222 
L 136.276462 159.157222 
L 136.8394 160.205711 
L 137.403021 160.205711 
L 139.654507 161.954208 
L 142.470825 163.62075 
L 143.033109 163.898639 
L 143.595411 164.467967 
L 144.158885 164.467967 
L 150.913723 167.479849 
L 151.476803 167.965828 
L 152.039376 167.965828 
L 152.602448 168.469176 
L 153.165468 168.469176 
L 157.107067 169.914099 
L 159.921375 170.626726 
L 162.173783 170.952839 
L 164.425628 171.023935 
L 166.116561 170.933896 
L 167.240587 170.785968 
L 167.80375 170.785968 
L 168.366626 170.643422 
L 169.493365 170.566195 
L 171.745156 170.150965 
L 174.561252 169.631213 
L 175.122935 169.231678 
L 175.687173 169.231678 
L 179.063639 168.431582 
L 181.878738 167.53201 
L 182.441475 167.08296 
L 184.13069 166.240005 
L 184.693668 166.240005 
L 186.382765 165.227698 
L 188.071469 164.117621 
L 189.761199 162.836404 
L 190.323394 161.897333 
L 190.887396 161.45023 
L 191.449768 161.45023 
L 192.012427 160.530436 
L 192.575014 160.530436 
L 193.137662 159.51391 
L 193.700648 159.51391 
L 195.952932 157.544659 
L 196.515339 157.544659 
L 197.078486 156.587509 
L 197.641536 156.011358 
L 198.204662 154.980187 
L 199.332065 153.777527 
L 199.893569 153.189929 
L 200.457761 153.189929 
L 202.144478 151.23257 
L 205.523247 147.288086 
L 206.086251 145.884433 
L 206.649026 145.238841 
L 207.211829 145.238841 
L 210.588871 141.215501 
L 212.277821 138.994978 
L 213.404364 137.370833 
L 213.967058 135.7951 
L 215.656059 133.165396 
L 216.782768 131.449373 
L 217.345175 131.449373 
L 217.909834 129.527472 
L 218.471506 129.527472 
L 220.723107 125.713187 
L 221.286546 124.788823 
L 221.84891 122.778956 
L 224.663623 118.038141 
L 225.227065 118.038141 
L 225.7897 116.159321 
L 226.353023 116.159321 
L 227.479127 114.016555 
L 229.167699 110.720009 
L 229.733655 108.577783 
L 231.418992 105.161985 
L 231.984583 105.161985 
L 232.545039 103.024524 
L 233.109635 103.024524 
L 233.670984 100.673706 
L 234.235425 100.673706 
L 236.48527 96.001845 
L 237.04797 94.8758 
L 237.610714 92.468127 
L 240.425787 86.751599 
L 240.989054 86.751599 
L 242.678602 83.046793 
L 244.367085 79.391344 
L 244.931194 77.925279 
L 245.49209 75.369492 
L 247.182307 71.268113 
L 248.308258 68.624999 
L 248.308258 68.624999 
" clip-path="url(#p38088a674b)" style="fill: none; stroke-dasharray: 6.66,2.88; stroke-dashoffset: 0; stroke: #555555; stroke-width: 1.8"/>
   </g>
   <g id="line2d_28">
    <path d="M 46.205779 28.956025 
L 47.895441 29.264617 
L 50.14786 29.931545 
L 53.525275 31.287932 
L 54.088877 31.287932 
L 54.65175 31.652489 
L 55.215428 31.652489 
L 56.903574 32.124354 
L 58.592033 32.352281 
L 63.095793 32.928419 
L 72.103754 33.69211 
L 73.229522 33.839166 
L 73.792478 33.998943 
L 74.354936 34.281479 
L 74.918129 34.281479 
L 75.480978 35.570053 
L 76.043771 35.570053 
L 76.606612 36.592472 
L 77.169998 37.930706 
L 78.859226 44.249017 
L 79.421995 46.793557 
L 81.110495 55.794507 
L 81.673746 58.73374 
L 82.23703 58.73374 
L 83.364564 64.910697 
L 85.616356 75.402879 
L 87.86626 83.739887 
L 88.991827 87.013356 
L 89.555038 87.013356 
L 90.118005 90.06756 
L 90.681056 90.06756 
L 91.243833 92.594447 
L 91.80721 92.594447 
L 92.93326 95.12496 
L 96.310396 101.987978 
L 96.873602 101.987978 
L 97.999721 104.349455 
L 102.503553 112.910871 
L 105.881477 118.638283 
L 106.444307 118.638283 
L 107.007317 120.544543 
L 107.570502 120.544543 
L 108.132944 121.409713 
L 108.696232 123.289302 
L 110.947541 126.870202 
L 111.510919 126.870202 
L 112.073486 128.562458 
L 114.890285 132.952988 
L 116.014839 134.77341 
L 117.140762 136.431167 
L 117.70336 136.431167 
L 118.265952 138.190574 
L 118.829005 138.987472 
L 119.391709 138.987472 
L 119.954709 140.669517 
L 126.711613 149.687003 
L 127.273653 149.687003 
L 127.839356 150.934934 
L 129.527047 152.754244 
L 130.090789 152.754244 
L 130.652475 153.769906 
L 131.215793 153.769906 
L 131.778144 154.306619 
L 132.341272 155.145648 
L 132.904325 155.525328 
L 133.467185 155.525328 
L 134.029922 156.243471 
L 134.593318 156.524203 
L 135.156172 156.524203 
L 135.720169 157.030479 
L 137.408339 157.518897 
L 139.096771 157.801897 
L 141.349246 157.942573 
L 145.290105 157.859379 
L 149.230546 157.622525 
L 150.357046 157.401948 
L 150.919325 157.401948 
L 152.045093 157.16897 
L 156.548474 156.73805 
L 160.493279 156.472689 
L 170.623987 155.330555 
L 174.564066 155.402006 
L 177.378377 155.585341 
L 180.755151 155.651905 
L 184.695365 155.468178 
L 188.635117 154.971206 
L 190.323884 154.619663 
L 190.88653 154.371017 
L 191.448999 154.371017 
L 194.260034 153.492742 
L 195.948965 152.793742 
L 196.512343 152.793742 
L 197.074924 152.246444 
L 198.201239 151.69599 
L 198.764263 151.021121 
L 199.32786 151.021121 
L 201.015847 149.894786 
L 202.706376 148.653505 
L 204.393686 147.211717 
L 207.208707 144.869238 
L 208.896936 143.318666 
L 211.711217 140.69733 
L 212.837623 139.584053 
L 213.963434 138.561379 
L 214.52641 137.443025 
L 215.089283 137.443025 
L 215.652671 136.381932 
L 216.214816 136.381932 
L 217.34083 135.227805 
L 220.719465 131.927135 
L 221.282697 131.255401 
L 221.845091 131.255401 
L 222.408391 129.44704 
L 222.970956 129.44704 
L 224.096831 128.08688 
L 226.913455 124.775319 
L 228.600644 122.560384 
L 229.725791 121.064846 
L 230.288785 119.380798 
L 230.851854 119.380798 
L 231.977753 117.760153 
L 233.666577 114.998086 
L 235.357149 112.09937 
L 237.044496 109.09214 
L 237.6073 108.110072 
L 238.169779 106.100015 
L 238.733041 106.100015 
L 239.858946 103.86848 
L 240.985422 101.751412 
L 241.548164 101.751412 
L 242.11115 100.474304 
L 242.674262 98.240958 
L 244.926147 93.524711 
L 245.488613 91.083387 
L 247.179732 87.684044 
L 247.744208 87.684044 
L 248.305674 86.349783 
L 248.305674 86.349783 
" clip-path="url(#p38088a674b)" style="fill: none; stroke: #2a6fbb; stroke-width: 2; stroke-linecap: square"/>
   </g>
   <g id="line2d_29">
    <path d="M 36.100655 161.53994 
L 258.413382 161.53994 
" clip-path="url(#p38088a674b)" style="fill: none; stroke-dasharray: 1.2,1.98; stroke-dashoffset: 0; stroke: #a83232; stroke-width: 1.2"/>
   </g>
   <g id="patch_3">
    <path d="M 36.100655 178.130337 
L 36.100655 21.852486 
" style="fill: none; stroke: #000000; stroke-width: 0.8; stroke-linejoin: miter; stroke-linecap: square"/>
   </g>
   <g id="patch_4">
    <path d="M 36.100655 178.130337 
L 258.413382 178.130337 
" style="fill: none; stroke: #000000; stroke-width: 0.8; stroke-linejoin: miter; stroke-linecap: square"/>
   </g>
   <g id="text_16">
    <text style="font: 700 9px 'sans-serif'; text-anchor: start" x="7.2" y="14.038594" transform="rotate(-0, 7.2, 14.038594)">a</text>
   </g>
   <g id="text_17">
    <text style="font: 8.5px 'sans-serif'; text-anchor: start" x="36.100655" y="17.852486" transform="rotate(-0, 36.100655, 17.852486)">Single obstacle</text>
   </g>
   <g id="legend_1">
    <g id="line2d_30">
     <path d="M 191.985882 32.331236 
L 199.985882 32.331236 
L 207.985882 32.331236 
" style="fill: none; stroke-dasharray: 6.66,2.88; stroke-dashoffset: 0; stroke: #555555; stroke-width: 1.8"/>
    </g>
    <g id="text_18">
     <text style="font: 8px 'sans-serif'; text-anchor: start" x="214.385882" y="35.131236" transform="rotate(-0, 214.385882, 35.131236)">Baseline</text>
    </g>
    <g id="line2d_31">
     <path d="M 191.985882 44.073736 
L 199.985882 44.073736 
L 207.985882 44.073736 
" style="fill: none; stroke: #2a6fbb; stroke-width: 2; stroke-linecap: square"/>
    </g>
    <g id="text_19">
     <text style="font: 8px 'sans-serif'; text-anchor: start" x="214.385882" y="46.873736" transform="rotate(-0, 214.385882, 46.873736)">CBF filter</text>
    </g>
   </g>
  </g>
  <g id="axes_2">
   <g id="patch_5">
    <path d="M 290.980655 178.130337 
L 513.293382 178.130337 
L 513.293382 21.852486 
L 290.980655 21.852486 
z
" style="fill: #ffffff"/>
   </g>
   <g id="matplotlib.axis_3">
    <g id="xtick_9">
     <g id="line2d_32">
      <path d="M 301.078381 178.130337 
L 301.078381 21.852486 
" clip-path="url(#p5f3e55155f)" style="fill: none; stroke: #b0b0b0; stroke-opacity: 0.3; stroke-width: 0.8; stroke-linecap: square"/>
     </g>
     <g id="line2d_33">
      <g>
       <use xlink:href="#mc3f0ec66da" x="301.078381" y="178.130337" style="stroke: #000000; stroke-width: 0.8"/>
      </g>
     </g>
     <g id="text_20">
      <text style="font: 8px 'sans-serif'; text-anchor: middle" x="301.078381" y="191.209087" transform="rotate(-0, 301.078381, 191.209087)">0.0</text>
     </g>
    </g>
    <g id="xtick_10">
     <g id="line2d_34">
      <path d="M 329.184594 178.130337 
L 329.184594 21.852486 
" clip-path="url(#p5f3e55155f)" style="fill: none; stroke: #b0b0b0; stroke-opacity: 0.3; stroke-width: 0.8; stroke-linecap: square"/>
     </g>
     <g id="line2d_35">
      <g>
       <use xlink:href="#mc3f0ec66da" x="329.184594" y="178.130337" style="stroke: #000000; stroke-width: 0.8"/>
      </g>
     </g>
     <g id="text_21">
      <text style="font: 8px 'sans-serif'; text-anchor: middle" x="329.184594" y="191.209087" transform="rotate(-0, 329.184594, 191.209087)">2.5</text>
     </g>
    </g>
    <g id="xtick_11">
     <g id="line2d_36">
      <path d="M 357.290807 178.130337 
L 357.290807 21.852486 
" clip-path="url(#p5f3e55155f)" style="fill: none; stroke: #b0b0b0; stroke-opacity: 0.3; stroke-width: 0.8; stroke-linecap: square"/>
     </g>
     <g id="line2d_37">
      <g>
       <use xlink:href="#mc3f0ec66da" x="357.290807" y="178.130337" style="stroke: #000000; stroke-width: 0.8"/>
      </g>
     </g>
     <g id="text_22">
      <text style="font: 8px 'sans-serif'; text-anchor: middle" x="357.290807" y="191.209087" transform="rotate(-0, 357.290807, 191.209087)">5.0</text>
     </g>
    </g>
    <g id="xtick_12">
     <g id="line2d_38">
      <path d="M 385.39702 178.130337 
L 385.39702 21.852486 
" clip-path="url(#p5f3e55155f)" style="fill: none; stroke: #b0b0b0; stroke-opacity: 0.3; stroke-width: 0.8; stroke-linecap: square"/>
     </g>
     <g id="line2d_39">
      <g>
       <use xlink:href="#mc3f0ec66da" x="385.39702" y="178.130337" style="stroke: #000000; stroke-width: 0.8"/>
      </g>
     </g>
     <g id="text_23">
      <text style="font: 8px 'sans-serif'; text-anchor: middle" x="385.39702" y="191.209087" transform="rotate(-0, 385.39702, 191.209087)">7.5</text>
     </g>
    </g>
    <g id="xtick_13">
     <g id="line2d_40">
      <path d="M 413.503233 178.130337 
L 413.503233 21.852486 
" clip-path="url(#p5f3e55155f)" style="fill: none; stroke: #b0b0b0; stroke-opacity: 0.3; stroke-width: 0.8; stroke-linecap: square"/>
     </g>
     <g id="line2d_41">
      <g>
       <use xlink:href="#mc3f0ec66da" x="413.503233" y="178.130337" style="stroke: #000000; stroke-width: 0.8"/>
      </g>
     </g>
     <g id="text_24">
      <text style="font: 8px 'sans-serif'; text-anchor: middle" x="413.503233" y="191.209087" transform="rotate(-0, 413.503233, 191.209087)">10.0</text>
     </g>
    </g>
    <g id="xtick_14">
     <g id="line2d_42">
      <path d="M 441.609446 178.130337 
L 441.609446 21.852486 
" clip-path="url(#p5f3e55155f)" style="fill: none; stroke: #b0b0b0; stroke-opacity: 0.3; stroke-width: 0.8; stroke-linecap: square"/>
     </g>
     <g id="line2d_43">
      <g>
       <use xlink:href="#mc3f0ec66da" x="441.609446" y="178.130337" style="stroke: #000000; stroke-width: 0.8"/>
      </g>
     </g>
     <g id="text_25">
      <text style="font: 8px 'sans-serif'; text-anchor: middle" x="441.609446" y="191.209087" transform="rotate(-0, 441.609446, 191.209087)">12.5</text>
     </g>
    </g>
    <g id="xtick_15">
     <g id="line2d_44">
      <path d="M 469.715659 178.130337 
L 469.715659 21.852486 
" clip-path="url(#p5f3e55155f)" style="fill: none; stroke: #b0b0b0; stroke-opacity: 0.3; stroke-width: 0.8; stroke-linecap: square"/>
     </g>
     <g id="line2d_45">
      <g>
       <use xlink:href="#mc3f0ec66da" x="469.715659" y="178.130337" style="stroke: #000000; stroke-width: 0.8"/>
      </g>
     </g>
     <g id="text_26">
      <text style="font: 8px 'sans-serif'; text-anchor: middle" x="469.715659" y="191.209087" transform="rotate(-0, 469.715659, 191.209087)">15.0</text>
     </g>
    </g>
    <g id="xtick_16">
     <g id="line2d_46">
      <path d="M 497.821872 178.130337 
L 497.821872 21.852486 
" clip-path="url(#p5f3e55155f)" style="fill: none; stroke: #b0b0b0; stroke-opacity: 0.3; stroke-width: 0.8; stroke-linecap: square"/>
     </g>
     <g id="line2d_47">
      <g>
       <use xlink:href="#mc3f0ec66da" x="497.821872" y="178.130337" style="stroke: #000000; stroke-width: 0.8"/>
      </g>
     </g>
     <g id="text_27">
      <text style="font: 8px 'sans-serif'; text-anchor: middle" x="497.821872" y="191.209087" transform="rotate(-0, 497.821872, 191.209087)">17.5</text>
     </g>
    </g>
    <g id="text_28">
     <text style="font: 8px 'sans-serif'; text-anchor: middle" x="402.137018" y="202.951587" transform="rotate(-0, 402.137018, 202.951587)">time [s]</text>
    </g>
   </g>
   <g id="matplotlib.axis_4">
    <g id="ytick_6">
     <g id="line2d_48">
      <path d="M 290.980655 153.315835 
L 513.293382 153.315835 
" clip-path="url(#p5f3e55155f)" style="fill: none; stroke: #b0b0b0; stroke-opacity: 0.3; stroke-width: 0.8; stroke-linecap: square"/>
     </g>
     <g id="line2d_49">
      <g>
       <use xlink:href="#ma4a115115f" x="290.980655" y="153.315835" style="stroke: #000000; stroke-width: 0.8"/>
      </g>
     </g>
     <g id="text_29">
      <text style="font: 8px 'sans-serif'; text-anchor: end" x="283.980655" y="156.35521" transform="rotate(-0, 283.980655, 156.35521)">0</text>
     </g>
    </g>
    <g id="ytick_7">
     <g id="line2d_50">
      <path d="M 290.980655 118.916056 
L 513.293382 118.916056 
" clip-path="url(#p5f3e55155f)" style="fill: none; stroke: #b0b0b0; stroke-opacity: 0.3; stroke-width: 0.8; stroke-linecap: square"/>
     </g>
     <g id="line2d_51">
      <g>
       <use xlink:href="#ma4a115115f" x="290.980655" y="118.916056" style="stroke: #000000; stroke-width: 0.8"/>
      </g>
     </g>
     <g id="text_30">
      <text style="font: 8px 'sans-serif'; text-anchor: end" x="283.980655" y="121.955431" transform="rotate(-0, 283.980655, 121.955431)">2</text>
     </g>
    </g>
    <g id="ytick_8">
     <g id="line2d_52">
      <path d="M 290.980655 84.516278 
L 513.293382 84.516278 
" clip-path="url(#p5f3e55155f)" style="fill: none; stroke: #b0b0b0; stroke-opacity: 0.3; stroke-width: 0.8; stroke-linecap: square"/>
     </g>
     <g id="line2d_53">
      <g>
       <use xlink:href="#ma4a115115f" x="290.980655" y="84.516278" style="stroke: #000000; stroke-width: 0.8"/>
      </g>
     </g>
     <g id="text_31">
      <text style="font: 8px 'sans-serif'; text-anchor: end" x="283.980655" y="87.555653" transform="rotate(-0, 283.980655, 87.555653)">4</text>
     </g>
    </g>
    <g id="ytick_9">
     <g id="line2d_54">
      <path d="M 290.980655 50.1165 
L 513.293382 50.1165 
" clip-path="url(#p5f3e55155f)" style="fill: none; stroke: #b0b0b0; stroke-opacity: 0.3; stroke-width: 0.8; stroke-linecap: square"/>
     </g>
     <g id="line2d_55">
      <g>
       <use xlink:href="#ma4a115115f" x="290.980655" y="50.1165" style="stroke: #000000; stroke-width: 0.8"/>
      </g>
     </g>
     <g id="text_32">
      <text style="font: 8px 'sans-serif'; text-anchor: end" x="283.980655" y="53.155875" transform="rotate(-0, 283.980655, 53.155875)">6</text>
     </g>
    </g>
    <g id="text_33">
     <text style="font: 8px 'sans-serif'; text-anchor: middle" x="273.226905" y="99.991411" transform="rotate(-90, 273.226905, 99.991411)">barrier value h</text>
    </g>
   </g>
   <g id="line2d_56">
    <path d="M 301.085779 30.590099 
L 304.464222 31.151485 
L 306.715692 31.21562 
L 312.909175 31.0172 
L 314.598119 30.877382 
L 319.664325 30.426544 
L 322.47928 30.279349 
L 323.042055 30.139569 
L 323.604997 30.139569 
L 324.168651 29.96789 
L 324.730976 29.96789 
L 326.983472 29.289195 
L 328.108784 28.967869 
L 328.672722 28.956025 
L 329.234053 29.090728 
L 329.797471 29.090728 
L 330.360048 30.20754 
L 330.922984 30.20754 
L 331.485981 32.708186 
L 332.048955 32.708186 
L 333.178252 37.261051 
L 334.30106 42.963376 
L 335.990455 53.524057 
L 336.553565 56.952552 
L 337.116233 56.952552 
L 338.241866 64.130554 
L 340.495379 76.152114 
L 342.183396 83.43201 
L 343.309972 87.240531 
L 343.873195 88.927482 
L 344.435646 88.927482 
L 344.998193 92.198179 
L 345.561619 92.198179 
L 346.127648 94.789944 
L 346.687947 94.789944 
L 347.253236 97.249442 
L 347.813553 97.249442 
L 351.191061 103.511537 
L 351.754895 103.511537 
L 352.316941 105.717247 
L 352.880065 105.717247 
L 353.44295 107.798462 
L 354.005604 107.798462 
L 355.131588 110.095732 
L 361.887122 122.623755 
L 365.266196 128.007161 
L 365.829032 128.007161 
L 366.392416 129.920953 
L 366.954483 130.806585 
L 367.518454 130.806585 
L 368.080687 132.679212 
L 368.644712 133.516773 
L 369.206559 133.516773 
L 369.771808 135.153194 
L 370.898634 136.880268 
L 373.149129 140.05776 
L 373.71148 140.05776 
L 374.274333 141.49399 
L 374.837564 142.308971 
L 375.400299 142.308971 
L 375.963409 143.658334 
L 376.526787 144.311005 
L 377.089929 144.311005 
L 377.652964 145.690406 
L 381.030309 149.380423 
L 381.592902 149.380423 
L 382.156419 150.600046 
L 382.720875 151.153147 
L 383.282208 151.153147 
L 383.846476 152.347107 
L 384.408439 152.899409 
L 384.973744 152.899409 
L 385.534841 153.998159 
L 386.660906 155.163454 
L 390.60056 158.874112 
L 391.163922 158.874112 
L 391.726833 159.802177 
L 392.29089 160.246132 
L 392.852901 160.246132 
L 393.416032 161.172383 
L 396.795159 163.503615 
L 397.356514 163.503615 
L 397.920511 164.224849 
L 402.986664 166.926312 
L 405.801951 168.102696 
L 406.364869 168.102696 
L 406.927783 168.327221 
L 407.491027 168.680568 
L 408.054464 168.84941 
L 408.617159 168.84941 
L 409.179867 169.203983 
L 414.249142 170.518708 
L 417.062497 170.920596 
L 419.314139 171.026798 
L 421.566821 170.848443 
L 424.943463 170.214719 
L 427.757912 169.442234 
L 428.322148 169.273466 
L 428.884416 169.273466 
L 429.448835 168.873967 
L 430.573932 168.458321 
L 431.136214 167.962637 
L 431.703342 167.962637 
L 435.080207 166.436641 
L 437.894521 165.029131 
L 438.457926 165.029131 
L 439.020208 164.492602 
L 439.583281 164.21784 
L 440.145606 164.21784 
L 440.709249 163.618318 
L 442.397154 162.653831 
L 444.085774 161.628538 
L 450.277422 156.78462 
L 453.09156 154.334116 
L 454.780223 152.713236 
L 455.343309 152.172593 
L 455.906328 150.944918 
L 456.468843 150.944918 
L 457.597181 149.728256 
L 459.283536 147.656275 
L 462.097897 144.152084 
L 462.660658 142.599077 
L 463.223452 142.599077 
L 464.912236 140.239138 
L 468.289385 135.422796 
L 469.978426 132.915446 
L 470.540445 131.326678 
L 471.103343 131.326678 
L 471.66652 129.547606 
L 472.229266 129.547606 
L 473.355256 127.861946 
L 473.918033 127.861946 
L 474.480768 125.998806 
L 475.606573 124.244445 
L 476.169469 124.244445 
L 476.732185 122.276012 
L 478.98392 118.326767 
L 479.546805 116.326395 
L 480.109784 116.326395 
L 481.235385 114.04172 
L 482.920518 110.536121 
L 485.171908 105.808242 
L 485.735133 105.808242 
L 486.299766 103.527817 
L 486.861436 102.392723 
L 487.424498 99.959047 
L 487.987951 99.959047 
L 488.55037 97.732324 
L 489.115686 97.732324 
L 490.240204 95.288159 
L 492.492591 90.394389 
L 493.618664 88.025644 
L 494.180426 85.424773 
L 494.745075 85.424773 
L 495.306882 82.961055 
L 495.874072 82.961055 
L 496.998469 80.188731 
L 498.120848 77.552813 
L 499.246801 74.609822 
L 501.499123 68.792997 
L 502.061756 65.983288 
L 502.62525 65.983288 
L 503.188258 62.884882 
L 503.188258 62.884882 
" clip-path="url(#p5f3e55155f)" style="fill: none; stroke-dasharray: 6.66,2.88; stroke-dashoffset: 0; stroke: #555555; stroke-width: 1.8"/>
   </g>
   <g id="line2d_57">
    <path d="M 301.089963 34.642845 
L 303.899724 35.160516 
L 304.462877 35.160516 
L 305.025587 35.333844 
L 306.15177 35.401333 
L 307.841371 35.496218 
L 309.53451 35.39738 
L 312.348214 35.173976 
L 313.474903 35.120454 
L 316.288548 34.890383 
L 319.103287 34.975702 
L 325.294544 35.51424 
L 328.671087 36.240434 
L 329.79671 36.837225 
L 330.360085 37.352763 
L 330.922517 38.108704 
L 332.048839 40.78094 
L 333.174574 44.592949 
L 335.426149 55.788525 
L 335.989015 55.788525 
L 336.551774 62.398047 
L 337.114914 62.398047 
L 339.365717 74.426424 
L 339.929114 74.426424 
L 340.492103 79.428965 
L 341.054908 79.428965 
L 341.617471 84.195046 
L 342.180442 84.195046 
L 343.869485 89.956804 
L 345.557623 94.373965 
L 346.683698 97.090524 
L 348.93508 101.550117 
L 349.495571 101.550117 
L 352.872104 107.490286 
L 353.997592 109.620701 
L 356.250212 113.812467 
L 358.502645 118.051201 
L 359.065372 118.051201 
L 360.753946 121.171035 
L 361.317651 123.041466 
L 363.006228 125.831472 
L 363.570491 125.831472 
L 364.132451 127.557988 
L 364.696167 127.557988 
L 365.821784 129.404549 
L 368.636442 133.605688 
L 369.199818 135.290859 
L 372.014964 139.061785 
L 372.578012 139.061785 
L 375.955815 142.968904 
L 376.520174 143.628931 
L 377.08199 144.690228 
L 379.896991 147.206175 
L 380.460608 147.206175 
L 381.022914 148.168246 
L 381.585868 148.168246 
L 385.527344 151.110199 
L 386.653618 151.60559 
L 387.217061 151.60559 
L 387.779871 152.059059 
L 388.343093 152.059059 
L 390.595721 152.661995 
L 392.283548 152.866501 
L 393.97249 152.851707 
L 396.786038 152.580669 
L 399.038596 152.022748 
L 400.164889 151.68369 
L 400.727871 151.269571 
L 403.54315 150.233949 
L 404.105566 150.233949 
L 406.360923 149.481472 
L 406.923521 149.481472 
L 407.486682 149.181326 
L 410.867447 148.320865 
L 414.244663 147.744889 
L 414.807599 147.459626 
L 415.370101 147.459626 
L 415.932959 147.330843 
L 416.495814 147.0828 
L 418.184271 146.901544 
L 420.436004 146.682986 
L 423.813166 146.582258 
L 427.753559 146.961456 
L 430.00526 147.374685 
L 430.568126 147.668965 
L 431.130896 147.668965 
L 431.693614 147.814073 
L 432.256786 148.136987 
L 435.070458 148.889511 
L 435.634227 148.889511 
L 436.196507 149.167159 
L 436.759574 149.167159 
L 438.448178 149.668642 
L 439.574001 149.761768 
L 440.699433 149.865876 
L 443.513724 149.758978 
L 444.076491 149.616297 
L 445.201854 149.536558 
L 445.765232 149.447418 
L 446.327661 149.229872 
L 447.453394 149.12023 
L 448.016308 148.897569 
L 453.082407 147.959572 
L 453.645292 147.782018 
L 454.207917 147.403499 
L 454.771239 147.403499 
L 455.333805 146.995843 
L 461.522931 145.040218 
L 462.086004 144.582163 
L 462.649074 144.582163 
L 463.212484 144.364846 
L 463.775653 143.890452 
L 467.153271 142.597959 
L 467.717365 142.03638 
L 468.279207 142.03638 
L 468.843422 141.37705 
L 469.405342 141.37705 
L 469.971947 140.720874 
L 470.535183 140.720874 
L 471.097382 139.952707 
L 473.345842 138.316808 
L 473.90863 138.316808 
L 475.597283 136.943467 
L 476.160184 136.477955 
L 476.723369 135.517892 
L 477.286594 135.517892 
L 477.849308 134.458944 
L 478.412957 134.458944 
L 478.97612 133.956104 
L 479.539206 132.842885 
L 481.792588 130.645261 
L 482.353513 130.104303 
L 482.917701 130.104303 
L 483.479677 128.994828 
L 484.044093 128.994828 
L 485.169672 127.734319 
L 485.731976 126.520089 
L 486.295973 126.520089 
L 486.858115 125.784055 
L 487.420764 124.48605 
L 489.109229 122.31319 
L 490.235658 120.839557 
L 491.925385 118.310025 
L 493.614378 115.631173 
L 494.177794 115.631173 
L 494.740384 114.779563 
L 495.30318 112.915765 
L 495.866928 112.039589 
L 496.428862 112.039589 
L 499.24545 107.489786 
L 499.80745 105.529206 
L 500.370852 104.608616 
L 500.933526 104.608616 
L 501.496421 102.739888 
L 502.059022 102.739888 
L 502.622229 100.714231 
L 503.184867 99.78776 
L 503.184867 99.78776 
" clip-path="url(#p5f3e55155f)" style="fill: none; stroke: #2a6fbb; stroke-width: 2; stroke-linecap: square"/>
   </g>
   <g id="line2d_58">
    <path d="M 290.980655 153.315835 
L 513.293382 153.315835 
" clip-path="url(#p5f3e55155f)" style="fill: none; stroke-dasharray: 1.2,1.98; stroke-dashoffset: 0; stroke: #a83232; stroke-width: 1.2"/>
   </g>
   <g id="patch_6">
    <path d="M 290.980655 178.130337 
L 290.980655 21.852486 
" style="fill: none; stroke: #000000; stroke-width: 0.8; stroke-linejoin: miter; stroke-linecap: square"/>
   </g>
   <g id="patch_7">
    <path d="M 290.980655 178.130337 
L 513.293382 178.130337 
" style="fill: none; stroke: #000000; stroke-width: 0.8; stroke-linejoin: miter; stroke-linecap: square"/>
   </g>
   <g id="text_34">
    <text style="font: 700 9px 'sans-serif'; text-anchor: start" x="262.08" y="14.038594" transform="rotate(-0, 262.08, 14.038594)">b</text>
   </g>
   <g id="text_35">
    <text style="font: 8.5px 'sans-serif'; text-anchor: start" x="290.980655" y="17.852486" transform="rotate(-0, 290.980655, 17.852486)">Large obstacle</text>
   </g>
   <g id="legend_2">
    <g id="line2d_59">
     <path d="M 446.865882 32.331236 
L 454.865882 32.331236 
L 462.865882 32.331236 
" style="fill: none; stroke-dasharray: 6.66,2.88; stroke-dashoffset: 0; stroke: #555555; stroke-width: 1.8"/>
    </g>
    <g id="text_36">
     <text style="font: 8px 'sans-serif'; text-anchor: start" x="469.265882" y="35.131236" transform="rotate(-0, 469.265882, 35.131236)">Baseline</text>
    </g>
    <g id="line2d_60">
     <path d="M 446.865882 44.073736 
L 454.865882 44.073736 
L 462.865882 44.073736 
" style="fill: none; stroke: #2a6fbb; stroke-width: 2; stroke-linecap: square"/>
    </g>
    <g id="text_37">
     <text style="font: 8px 'sans-serif'; text-anchor: start" x="469.265882" y="46.873736" transform="rotate(-0, 469.265882, 46.873736)">CBF filter</text>
    </g>
   </g>
  </g>
  <g id="axes_3">
   <g id="patch_8">
    <path d="M 36.100655 384.050337 
L 258.413382 384.050337 
L 258.413382 227.772486 
L 36.100655 227.772486 
z
" style="fill: #ffffff"/>
   </g>
   <g id="matplotlib.axis_5">
    <g id="xtick_17">
     <g id="line2d_61">
      <path d="M 46.19877 384.050337 
L 46.19877 227.772486 
" clip-path="url(#p200881b202)" style="fill: none; stroke: #b0b0b0; stroke-opacity: 0.3; stroke-width: 0.8; stroke-linecap: square"/>
     </g>
     <g id="line2d_62">
      <g>
       <use xlink:href="#mc3f0ec66da" x="46.19877" y="384.050337" style="stroke: #000000; stroke-width: 0.8"/>
      </g>
     </g>
     <g id="text_38">
      <text style="font: 8px 'sans-serif'; text-anchor: middle" x="46.19877" y="397.129087" transform="rotate(-0, 46.19877, 397.129087)">0.0</text>
     </g>
    </g>
    <g id="xtick_18">
     <g id="line2d_63">
      <path d="M 74.302647 384.050337 
L 74.302647 227.772486 
" clip-path="url(#p200881b202)" style="fill: none; stroke: #b0b0b0; stroke-opacity: 0.3; stroke-width: 0.8; stroke-linecap: square"/>
     </g>
     <g id="line2d_64">
      <g>
       <use xlink:href="#mc3f0ec66da" x="74.302647" y="384.050337" style="stroke: #000000; stroke-width: 0.8"/>
      </g>
     </g>
     <g id="text_39">
      <text style="font: 8px 'sans-serif'; text-anchor: middle" x="74.302647" y="397.129087" transform="rotate(-0, 74.302647, 397.129087)">2.5</text>
     </g>
    </g>
    <g id="xtick_19">
     <g id="line2d_65">
      <path d="M 102.406523 384.050337 
L 102.406523 227.772486 
" clip-path="url(#p200881b202)" style="fill: none; stroke: #b0b0b0; stroke-opacity: 0.3; stroke-width: 0.8; stroke-linecap: square"/>
     </g>
     <g id="line2d_66">
      <g>
       <use xlink:href="#mc3f0ec66da" x="102.406523" y="384.050337" style="stroke: #000000; stroke-width: 0.8"/>
      </g>
     </g>
     <g id="text_40">
      <text style="font: 8px 'sans-serif'; text-anchor: middle" x="102.406523" y="397.129087" transform="rotate(-0, 102.406523, 397.129087)">5.0</text>
     </g>
    </g>
    <g id="xtick_20">
     <g id="line2d_67">
      <path d="M 130.5104 384.050337 
L 130.5104 227.772486 
" clip-path="url(#p200881b202)" style="fill: none; stroke: #b0b0b0; stroke-opacity: 0.3; stroke-width: 0.8; stroke-linecap: square"/>
     </g>
     <g id="line2d_68">
      <g>
       <use xlink:href="#mc3f0ec66da" x="130.5104" y="384.050337" style="stroke: #000000; stroke-width: 0.8"/>
      </g>
     </g>
     <g id="text_41">
      <text style="font: 8px 'sans-serif'; text-anchor: middle" x="130.5104" y="397.129087" transform="rotate(-0, 130.5104, 397.129087)">7.5</text>
     </g>
    </g>
    <g id="xtick_21">
     <g id="line2d_69">
      <path d="M 158.614277 384.050337 
L 158.614277 227.772486 
" clip-path="url(#p200881b202)" style="fill: none; stroke: #b0b0b0; stroke-opacity: 0.3; stroke-width: 0.8; stroke-linecap: square"/>
     </g>
     <g id="line2d_70">
      <g>
       <use xlink:href="#mc3f0ec66da" x="158.614277" y="384.050337" style="stroke: #000000; stroke-width: 0.8"/>
      </g>
     </g>
     <g id="text_42">
      <text style="font: 8px 'sans-serif'; text-anchor: middle" x="158.614277" y="397.129087" transform="rotate(-0, 158.614277, 397.129087)">10.0</text>
     </g>
    </g>
    <g id="xtick_22">
     <g id="line2d_71">
      <path d="M 186.718154 384.050337 
L 186.718154 227.772486 
" clip-path="url(#p200881b202)" style="fill: none; stroke: #b0b0b0; stroke-opacity: 0.3; stroke-width: 0.8; stroke-linecap: square"/>
     </g>
     <g id="line2d_72">
      <g>
       <use xlink:href="#mc3f0ec66da" x="186.718154" y="384.050337" style="stroke: #000000; stroke-width: 0.8"/>
      </g>
     </g>
     <g id="text_43">
      <text style="font: 8px 'sans-serif'; text-anchor: middle" x="186.718154" y="397.129087" transform="rotate(-0, 186.718154, 397.129087)">12.5</text>
     </g>
    </g>
    <g id="xtick_23">
     <g id="line2d_73">
      <path d="M 214.82203 384.050337 
L 214.82203 227.772486 
" clip-path="url(#p200881b202)" style="fill: none; stroke: #b0b0b0; stroke-opacity: 0.3; stroke-width: 0.8; stroke-linecap: square"/>
     </g>
     <g id="line2d_74">
      <g>
       <use xlink:href="#mc3f0ec66da" x="214.82203" y="384.050337" style="stroke: #000000; stroke-width: 0.8"/>
      </g>
     </g>
     <g id="text_44">
      <text style="font: 8px 'sans-serif'; text-anchor: middle" x="214.82203" y="397.129087" transform="rotate(-0, 214.82203, 397.129087)">15.0</text>
     </g>
    </g>
    <g id="xtick_24">
     <g id="line2d_75">
      <path d="M 242.925907 384.050337 
L 242.925907 227.772486 
" clip-path="url(#p200881b202)" style="fill: none; stroke: #b0b0b0; stroke-opacity: 0.3; stroke-width: 0.8; stroke-linecap: square"/>
     </g>
     <g id="line2d_76">
      <g>
       <use xlink:href="#mc3f0ec66da" x="242.925907" y="384.050337" style="stroke: #000000; stroke-width: 0.8"/>
      </g>
     </g>
     <g id="text_45">
      <text style="font: 8px 'sans-serif'; text-anchor: middle" x="242.925907" y="397.129087" transform="rotate(-0, 242.925907, 397.129087)">17.5</text>
     </g>
    </g>
    <g id="text_46">
     <text style="font: 8px 'sans-serif'; text-anchor: middle" x="147.257018" y="408.871587" transform="rotate(-0, 147.257018, 408.871587)">time [s]</text>
    </g>
   </g>
   <g id="matplotlib.axis_6">
    <g id="ytick_10">
     <g id="line2d_77">
      <path d="M 36.100655 366.03376 
L 258.413382 366.03376 
" clip-path="url(#p200881b202)" style="fill: none; stroke: #b0b0b0; stroke-opacity: 0.3; stroke-width: 0.8; stroke-linecap: square"/>
     </g>
     <g id="line2d_78">
      <g>
       <use xlink:href="#ma4a115115f" x="36.100655" y="366.03376" style="stroke: #000000; stroke-width: 0.8"/>
      </g>
     </g>
     <g id="text_47">
      <text style="font: 8px 'sans-serif'; text-anchor: end" x="29.100655" y="369.073135" transform="rotate(-0, 29.100655, 369.073135)">0</text>
     </g>
    </g>
    <g id="ytick_11">
     <g id="line2d_79">
      <path d="M 36.100655 345.727532 
L 258.413382 345.727532 
" clip-path="url(#p200881b202)" style="fill: none; stroke: #b0b0b0; stroke-opacity: 0.3; stroke-width: 0.8; stroke-linecap: square"/>
     </g>
     <g id="line2d_80">
      <g>
       <use xlink:href="#ma4a115115f" x="36.100655" y="345.727532" style="stroke: #000000; stroke-width: 0.8"/>
      </g>
     </g>
     <g id="text_48">
      <text style="font: 8px 'sans-serif'; text-anchor: end" x="29.100655" y="348.766907" transform="rotate(-0, 29.100655, 348.766907)">1</text>
     </g>
    </g>
    <g id="ytick_12">
     <g id="line2d_81">
      <path d="M 36.100655 325.421304 
L 258.413382 325.421304 
" clip-path="url(#p200881b202)" style="fill: none; stroke: #b0b0b0; stroke-opacity: 0.3; stroke-width: 0.8; stroke-linecap: square"/>
     </g>
     <g id="line2d_82">
      <g>
       <use xlink:href="#ma4a115115f" x="36.100655" y="325.421304" style="stroke: #000000; stroke-width: 0.8"/>
      </g>
     </g>
     <g id="text_49">
      <text style="font: 8px 'sans-serif'; text-anchor: end" x="29.100655" y="328.460679" transform="rotate(-0, 29.100655, 328.460679)">2</text>
     </g>
    </g>
    <g id="ytick_13">
     <g id="line2d_83">
      <path d="M 36.100655 305.115076 
L 258.413382 305.115076 
" clip-path="url(#p200881b202)" style="fill: none; stroke: #b0b0b0; stroke-opacity: 0.3; stroke-width: 0.8; stroke-linecap: square"/>
     </g>
     <g id="line2d_84">
      <g>
       <use xlink:href="#ma4a115115f" x="36.100655" y="305.115076" style="stroke: #000000; stroke-width: 0.8"/>
      </g>
     </g>
     <g id="text_50">
      <text style="font: 8px 'sans-serif'; text-anchor: end" x="29.100655" y="308.154451" transform="rotate(-0, 29.100655, 308.154451)">3</text>
     </g>
    </g>
    <g id="ytick_14">
     <g id="line2d_85">
      <path d="M 36.100655 284.808848 
L 258.413382 284.808848 
" clip-path="url(#p200881b202)" style="fill: none; stroke: #b0b0b0; stroke-opacity: 0.3; stroke-width: 0.8; stroke-linecap: square"/>
     </g>
     <g id="line2d_86">
      <g>
       <use xlink:href="#ma4a115115f" x="36.100655" y="284.808848" style="stroke: #000000; stroke-width: 0.8"/>
      </g>
     </g>
     <g id="text_51">
      <text style="font: 8px 'sans-serif'; text-anchor: end" x="29.100655" y="287.848223" transform="rotate(-0, 29.100655, 287.848223)">4</text>
     </g>
    </g>
    <g id="ytick_15">
     <g id="line2d_87">
      <path d="M 36.100655 264.50262 
L 258.413382 264.50262 
" clip-path="url(#p200881b202)" style="fill: none; stroke: #b0b0b0; stroke-opacity: 0.3; stroke-width: 0.8; stroke-linecap: square"/>
     </g>
     <g id="line2d_88">
      <g>
       <use xlink:href="#ma4a115115f" x="36.100655" y="264.50262" style="stroke: #000000; stroke-width: 0.8"/>
      </g>
     </g>
     <g id="text_52">
      <text style="font: 8px 'sans-serif'; text-anchor: end" x="29.100655" y="267.541995" transform="rotate(-0, 29.100655, 267.541995)">5</text>
     </g>
    </g>
    <g id="ytick_16">
     <g id="line2d_89">
      <path d="M 36.100655 244.196392 
L 258.413382 244.196392 
" clip-path="url(#p200881b202)" style="fill: none; stroke: #b0b0b0; stroke-opacity: 0.3; stroke-width: 0.8; stroke-linecap: square"/>
     </g>
     <g id="line2d_90">
      <g>
       <use xlink:href="#ma4a115115f" x="36.100655" y="244.196392" style="stroke: #000000; stroke-width: 0.8"/>
      </g>
     </g>
     <g id="text_53">
      <text style="font: 8px 'sans-serif'; text-anchor: end" x="29.100655" y="247.235767" transform="rotate(-0, 29.100655, 247.235767)">6</text>
     </g>
    </g>
    <g id="text_54">
     <text style="font: 8px 'sans-serif'; text-anchor: middle" x="18.346905" y="305.911411" transform="rotate(-90, 18.346905, 305.911411)">barrier value h</text>
    </g>
   </g>
   <g id="line2d_91">
    <path d="M 46.206095 240.358669 
L 48.457927 240.367581 
L 58.028639 240.118877 
L 60.842975 239.416809 
L 63.094856 238.717086 
L 72.102909 235.596334 
L 73.228727 235.022091 
L 73.791574 234.876025 
L 74.91732 234.888743 
L 75.480107 235.792619 
L 76.043111 235.792619 
L 76.606569 238.24429 
L 77.16956 238.24429 
L 78.295188 242.871439 
L 79.421231 248.690602 
L 81.111319 259.711272 
L 81.673618 263.384151 
L 82.23707 263.384151 
L 83.363382 271.162594 
L 85.614523 284.250842 
L 87.302488 292.059167 
L 88.428778 296.071741 
L 90.118306 301.215416 
L 91.242607 303.89058 
L 91.80559 303.89058 
L 92.931746 306.496265 
L 96.310134 313.357012 
L 96.872549 313.357012 
L 97.435985 315.708042 
L 97.99782 315.708042 
L 99.687999 319.191199 
L 103.627336 327.231804 
L 104.189493 328.444559 
L 104.752385 328.444559 
L 105.315338 330.435114 
L 105.878509 331.386413 
L 106.441449 331.386413 
L 107.004006 333.35227 
L 110.382656 338.355778 
L 111.510088 339.87607 
L 112.070538 340.520701 
L 112.63465 340.520701 
L 113.196563 341.793486 
L 116.012008 344.402158 
L 119.952015 347.688517 
L 120.51473 347.688517 
L 121.07804 348.569931 
L 121.640808 349.000459 
L 122.204094 349.000459 
L 122.76734 349.905455 
L 126.709399 352.603251 
L 127.834266 353.280304 
L 128.397546 353.280304 
L 128.96076 353.99747 
L 131.211764 355.185268 
L 134.588217 356.485478 
L 135.713486 356.902587 
L 136.278415 356.902587 
L 136.839988 357.273927 
L 140.217869 358.260106 
L 141.90863 358.587981 
L 142.46979 358.587981 
L 143.595839 358.790124 
L 145.847696 358.895954 
L 148.663036 358.798745 
L 152.039505 358.515267 
L 153.165747 358.250154 
L 153.728813 358.250154 
L 154.855572 357.871767 
L 157.670085 357.072595 
L 158.233574 356.856636 
L 159.359443 358.081317 
L 163.861532 363.174767 
L 167.239226 366.405164 
L 167.802611 366.405164 
L 168.36554 367.303398 
L 172.868557 370.701177 
L 173.432815 371.066956 
L 173.994957 371.066956 
L 174.558162 371.833291 
L 177.935178 373.745677 
L 179.06072 374.303371 
L 181.875951 375.401272 
L 183.001812 375.779568 
L 183.565084 375.779568 
L 184.128255 376.071476 
L 184.690986 376.198501 
L 185.254315 376.198501 
L 185.816627 376.43249 
L 188.63203 376.80587 
L 191.446178 376.946798 
L 194.260162 376.858456 
L 196.512533 376.616325 
L 198.764615 376.204089 
L 201.015579 375.598856 
L 203.831606 374.619564 
L 206.082423 373.683357 
L 207.770792 372.823905 
L 209.459824 371.865152 
L 215.089592 367.687425 
L 216.779537 366.19 
L 219.030582 364.083946 
L 220.719984 362.406472 
L 222.407447 360.50733 
L 222.970176 359.894309 
L 223.533102 358.550071 
L 224.096506 358.550071 
L 224.659449 357.280022 
L 225.222737 357.280022 
L 226.348735 355.871612 
L 228.601275 353.061826 
L 229.727316 351.66631 
L 230.288967 351.66631 
L 230.853585 350.837455 
L 231.414914 349.39304 
L 231.979698 348.654188 
L 232.542048 347.007773 
L 233.105313 347.007773 
L 234.794047 344.500682 
L 236.482454 341.998123 
L 238.171253 339.170166 
L 238.734691 338.234255 
L 239.297353 336.176532 
L 239.860587 336.176532 
L 240.423549 334.251796 
L 240.987092 334.251796 
L 242.114033 332.155605 
L 243.801586 329.060899 
L 246.053783 324.832079 
L 246.616007 323.802299 
L 247.178837 321.730125 
L 247.741499 321.730125 
L 248.304109 319.408202 
L 248.304109 319.408202 
" clip-path="url(#p200881b202)" style="fill: none; stroke-dasharray: 6.66,2.88; stroke-dashoffset: 0; stroke: #555555; stroke-width: 1.8"/>
   </g>
   <g id="line2d_92">
    <path d="M 46.205779 240.479591 
L 47.895108 240.346984 
L 50.147661 239.772373 
L 51.836484 239.378851 
L 54.651029 239.060043 
L 55.776783 238.993615 
L 58.02914 238.868889 
L 59.721104 238.87386 
L 63.095228 239.087831 
L 65.910681 239.097484 
L 70.976732 239.402226 
L 72.102823 239.346058 
L 73.791799 239.074044 
L 74.917111 239.110128 
L 75.479793 239.876614 
L 76.042929 239.876614 
L 76.605979 241.868419 
L 77.169262 241.868419 
L 78.295078 245.726356 
L 79.421384 250.758217 
L 81.673174 263.806631 
L 82.236792 263.806631 
L 83.362358 270.794441 
L 85.615051 282.48194 
L 87.303112 289.474728 
L 88.428907 293.099513 
L 90.117673 297.796689 
L 90.681085 297.796689 
L 91.243923 300.293995 
L 91.80726 300.293995 
L 92.932944 302.680257 
L 96.311059 308.521847 
L 96.873447 308.521847 
L 97.436805 310.534052 
L 97.999321 310.534052 
L 98.563786 312.43911 
L 99.125116 312.43911 
L 100.251408 314.580553 
L 101.94085 317.846584 
L 102.502976 318.886727 
L 103.065883 320.927257 
L 103.629124 320.927257 
L 104.754856 323.080364 
L 105.881227 325.012649 
L 106.443765 325.012649 
L 107.006796 326.118985 
L 107.570291 328.005312 
L 108.133426 328.947659 
L 108.696198 328.947659 
L 109.258631 330.966781 
L 110.384326 332.798781 
L 110.947558 334.696433 
L 111.511369 334.696433 
L 112.07447 336.342503 
L 112.637592 336.342503 
L 113.764456 338.029708 
L 117.141424 342.472344 
L 117.704112 342.472344 
L 118.267317 343.256437 
L 118.830879 345.177411 
L 119.393103 345.177411 
L 120.519444 346.440308 
L 124.45977 350.117036 
L 125.586829 350.994479 
L 126.148882 351.872217 
L 126.712669 352.260163 
L 127.275204 352.260163 
L 127.839131 353.046318 
L 128.401291 353.046318 
L 129.526318 353.889588 
L 130.089502 354.266413 
L 130.651949 354.266413 
L 131.214785 355.032358 
L 134.59239 357.047862 
L 135.155965 357.047862 
L 135.71872 357.544112 
L 136.281701 357.544112 
L 139.659997 358.794138 
L 140.221739 358.794138 
L 140.786207 359.148205 
L 141.349651 359.291407 
L 141.911905 359.555731 
L 143.599749 359.852129 
L 144.725147 359.923875 
L 146.977044 360.080648 
L 149.228855 360.024128 
L 150.354711 359.874826 
L 151.480936 359.799149 
L 154.295377 359.45506 
L 155.421174 359.123293 
L 159.925061 358.115673 
L 160.487904 357.785521 
L 161.050576 357.785521 
L 162.176623 357.461484 
L 162.739367 357.545255 
L 164.9918 359.453628 
L 165.55459 360.258479 
L 166.117476 360.635603 
L 166.680939 360.635603 
L 167.243903 361.380493 
L 167.807355 361.380493 
L 170.059257 362.54822 
L 172.311524 363.39986 
L 172.873997 363.566148 
L 173.437034 363.86787 
L 173.999122 363.985442 
L 174.562737 363.985442 
L 175.125187 364.179532 
L 176.251249 364.260777 
L 178.502988 364.393552 
L 181.317578 364.279951 
L 183.569016 364.116628 
L 184.133052 363.968064 
L 185.259262 363.88078 
L 188.636599 363.403366 
L 189.761619 363.173967 
L 193.139656 362.854964 
L 195.39166 362.745693 
L 200.459361 362.394516 
L 211.154372 361.431749 
L 216.221207 361.431697 
L 222.976731 361.699818 
L 225.22799 361.765754 
L 229.73318 361.67204 
L 231.98375 361.394439 
L 239.30196 360.009058 
L 239.864846 360.009058 
L 240.429435 359.874252 
L 241.554224 359.805632 
L 247.182426 359.301574 
L 248.308258 359.197278 
L 248.308258 359.197278 
" clip-path="url(#p200881b202)" style="fill: none; stroke: #2a6fbb; stroke-width: 2; stroke-linecap: square"/>
   </g>
   <g id="line2d_93">
    <path d="M 36.100655 366.03376 
L 258.413382 366.03376 
" clip-path="url(#p200881b202)" style="fill: none; stroke-dasharray: 1.2,1.98; stroke-dashoffset: 0; stroke: #a83232; stroke-width: 1.2"/>
   </g>
   <g id="patch_9">
    <path d="M 36.100655 384.050337 
L 36.100655 227.772486 
" style="fill: none; stroke: #000000; stroke-width: 0.8; stroke-linejoin: miter; stroke-linecap: square"/>
   </g>
   <g id="patch_10">
    <path d="M 36.100655 384.050337 
L 258.413382 384.050337 
" style="fill: none; stroke: #000000; stroke-width: 0.8; stroke-linejoin: miter; stroke-linecap: square"/>
   </g>
   <g id="text_55">
    <text style="font: 700 9px 'sans-serif'; text-anchor: start" x="7.2" y="219.958594" transform="rotate(-0, 7.2, 219.958594)">c</text>
   </g>
   <g id="text_56">
    <text style="font: 8.5px 'sans-serif'; text-anchor: start" x="36.100655" y="223.772486" transform="rotate(-0, 36.100655, 223.772486)">Multiple obstacles</text>
   </g>
   <g id="legend_3">
    <g id="line2d_94">
     <path d="M 191.985882 238.251236 
L 199.985882 238.251236 
L 207.985882 238.251236 
" style="fill: none; stroke-dasharray: 6.66,2.88; stroke-dashoffset: 0; stroke: #555555; stroke-width: 1.8"/>
    </g>
    <g id="text_57">
     <text style="font: 8px 'sans-serif'; text-anchor: start" x="214.385882" y="241.051236" transform="rotate(-0, 214.385882, 241.051236)">Baseline</text>
    </g>
    <g id="line2d_95">
     <path d="M 191.985882 249.993736 
L 199.985882 249.993736 
L 207.985882 249.993736 
" style="fill: none; stroke: #2a6fbb; stroke-width: 2; stroke-linecap: square"/>
    </g>
    <g id="text_58">
     <text style="font: 8px 'sans-serif'; text-anchor: start" x="214.385882" y="252.793736" transform="rotate(-0, 214.385882, 252.793736)">CBF filter</text>
    </g>
   </g>
  </g>
  <g id="axes_4">
   <g id="patch_11">
    <path d="M 290.980655 384.050337 
L 513.293382 384.050337 
L 513.293382 227.772486 
L 290.980655 227.772486 
z
" style="fill: #ffffff"/>
   </g>
   <g id="matplotlib.axis_7">
    <g id="xtick_25">
     <g id="line2d_96">
      <path d="M 301.078933 384.050337 
L 301.078933 227.772486 
" clip-path="url(#pdd53d755c7)" style="fill: none; stroke: #b0b0b0; stroke-opacity: 0.3; stroke-width: 0.8; stroke-linecap: square"/>
     </g>
     <g id="line2d_97">
      <g>
       <use xlink:href="#mc3f0ec66da" x="301.078933" y="384.050337" style="stroke: #000000; stroke-width: 0.8"/>
      </g>
     </g>
     <g id="text_59">
      <text style="font: 8px 'sans-serif'; text-anchor: middle" x="301.078933" y="397.129087" transform="rotate(-0, 301.078933, 397.129087)">0.0</text>
     </g>
    </g>
    <g id="xtick_26">
     <g id="line2d_98">
      <path d="M 329.182442 384.050337 
L 329.182442 227.772486 
" clip-path="url(#pdd53d755c7)" style="fill: none; stroke: #b0b0b0; stroke-opacity: 0.3; stroke-width: 0.8; stroke-linecap: square"/>
     </g>
     <g id="line2d_99">
      <g>
       <use xlink:href="#mc3f0ec66da" x="329.182442" y="384.050337" style="stroke: #000000; stroke-width: 0.8"/>
      </g>
     </g>
     <g id="text_60">
      <text style="font: 8px 'sans-serif'; text-anchor: middle" x="329.182442" y="397.129087" transform="rotate(-0, 329.182442, 397.129087)">2.5</text>
     </g>
    </g>
    <g id="xtick_27">
     <g id="line2d_100">
      <path d="M 357.285951 384.050337 
L 357.285951 227.772486 
" clip-path="url(#pdd53d755c7)" style="fill: none; stroke: #b0b0b0; stroke-opacity: 0.3; stroke-width: 0.8; stroke-linecap: square"/>
     </g>
     <g id="line2d_101">
      <g>
       <use xlink:href="#mc3f0ec66da" x="357.285951" y="384.050337" style="stroke: #000000; stroke-width: 0.8"/>
      </g>
     </g>
     <g id="text_61">
      <text style="font: 8px 'sans-serif'; text-anchor: middle" x="357.285951" y="397.129087" transform="rotate(-0, 357.285951, 397.129087)">5.0</text>
     </g>
    </g>
    <g id="xtick_28">
     <g id="line2d_102">
      <path d="M 385.38946 384.050337 
L 385.38946 227.772486 
" clip-path="url(#pdd53d755c7)" style="fill: none; stroke: #b0b0b0; stroke-opacity: 0.3; stroke-width: 0.8; stroke-linecap: square"/>
     </g>
     <g id="line2d_103">
      <g>
       <use xlink:href="#mc3f0ec66da" x="385.38946" y="384.050337" style="stroke: #000000; stroke-width: 0.8"/>
      </g>
     </g>
     <g id="text_62">
      <text style="font: 8px 'sans-serif'; text-anchor: middle" x="385.38946" y="397.129087" transform="rotate(-0, 385.38946, 397.129087)">7.5</text>
     </g>
    </g>
    <g id="xtick_29">
     <g id="line2d_104">
      <path d="M 413.492969 384.050337 
L 413.492969 227.772486 
" clip-path="url(#pdd53d755c7)" style="fill: none; stroke: #b0b0b0; stroke-opacity: 0.3; stroke-width: 0.8; stroke-linecap: square"/>
     </g>
     <g id="line2d_105">
      <g>
       <use xlink:href="#mc3f0ec66da" x="413.492969" y="384.050337" style="stroke: #000000; stroke-width: 0.8"/>
      </g>
     </g>
     <g id="text_63">
      <text style="font: 8px 'sans-serif'; text-anchor: middle" x="413.492969" y="397.129087" transform="rotate(-0, 413.492969, 397.129087)">10.0</text>
     </g>
    </g>
    <g id="xtick_30">
     <g id="line2d_106">
      <path d="M 441.596478 384.050337 
L 441.596478 227.772486 
" clip-path="url(#pdd53d755c7)" style="fill: none; stroke: #b0b0b0; stroke-opacity: 0.3; stroke-width: 0.8; stroke-linecap: square"/>
     </g>
     <g id="line2d_107">
      <g>
       <use xlink:href="#mc3f0ec66da" x="441.596478" y="384.050337" style="stroke: #000000; stroke-width: 0.8"/>
      </g>
     </g>
     <g id="text_64">
      <text style="font: 8px 'sans-serif'; text-anchor: middle" x="441.596478" y="397.129087" transform="rotate(-0, 441.596478, 397.129087)">12.5</text>
     </g>
    </g>
    <g id="xtick_31">
     <g id="line2d_108">
      <path d="M 469.699987 384.050337 
L 469.699987 227.772486 
" clip-path="url(#pdd53d755c7)" style="fill: none; stroke: #b0b0b0; stroke-opacity: 0.3; stroke-width: 0.8; stroke-linecap: square"/>
     </g>
     <g id="line2d_109">
      <g>
       <use xlink:href="#mc3f0ec66da" x="469.699987" y="384.050337" style="stroke: #000000; stroke-width: 0.8"/>
      </g>
     </g>
     <g id="text_65">
      <text style="font: 8px 'sans-serif'; text-anchor: middle" x="469.699987" y="397.129087" transform="rotate(-0, 469.699987, 397.129087)">15.0</text>
     </g>
    </g>
    <g id="xtick_32">
     <g id="line2d_110">
      <path d="M 497.803496 384.050337 
L 497.803496 227.772486 
" clip-path="url(#pdd53d755c7)" style="fill: none; stroke: #b0b0b0; stroke-opacity: 0.3; stroke-width: 0.8; stroke-linecap: square"/>
     </g>
     <g id="line2d_111">
      <g>
       <use xlink:href="#mc3f0ec66da" x="497.803496" y="384.050337" style="stroke: #000000; stroke-width: 0.8"/>
      </g>
     </g>
     <g id="text_66">
      <text style="font: 8px 'sans-serif'; text-anchor: middle" x="497.803496" y="397.129087" transform="rotate(-0, 497.803496, 397.129087)">17.5</text>
     </g>
    </g>
    <g id="text_67">
     <text style="font: 8px 'sans-serif'; text-anchor: middle" x="402.137018" y="408.871587" transform="rotate(-0, 402.137018, 408.871587)">time [s]</text>
    </g>
   </g>
   <g id="matplotlib.axis_8">
    <g id="ytick_17">
     <g id="line2d_112">
      <path d="M 290.980655 381.497955 
L 513.293382 381.497955 
" clip-path="url(#pdd53d755c7)" style="fill: none; stroke: #b0b0b0; stroke-opacity: 0.3; stroke-width: 0.8; stroke-linecap: square"/>
     </g>
     <g id="line2d_113">
      <g>
       <use xlink:href="#ma4a115115f" x="290.980655" y="381.497955" style="stroke: #000000; stroke-width: 0.8"/>
      </g>
     </g>
     <g id="text_68">
      <text style="font: 8px 'sans-serif'; text-anchor: end" x="283.980655" y="384.53733" transform="rotate(-0, 283.980655, 384.53733)">0</text>
     </g>
    </g>
    <g id="ytick_18">
     <g id="line2d_114">
      <path d="M 290.980655 350.464622 
L 513.293382 350.464622 
" clip-path="url(#pdd53d755c7)" style="fill: none; stroke: #b0b0b0; stroke-opacity: 0.3; stroke-width: 0.8; stroke-linecap: square"/>
     </g>
     <g id="line2d_115">
      <g>
       <use xlink:href="#ma4a115115f" x="290.980655" y="350.464622" style="stroke: #000000; stroke-width: 0.8"/>
      </g>
     </g>
     <g id="text_69">
      <text style="font: 8px 'sans-serif'; text-anchor: end" x="283.980655" y="353.503997" transform="rotate(-0, 283.980655, 353.503997)">2</text>
     </g>
    </g>
    <g id="ytick_19">
     <g id="line2d_116">
      <path d="M 290.980655 319.43129 
L 513.293382 319.43129 
" clip-path="url(#pdd53d755c7)" style="fill: none; stroke: #b0b0b0; stroke-opacity: 0.3; stroke-width: 0.8; stroke-linecap: square"/>
     </g>
     <g id="line2d_117">
      <g>
       <use xlink:href="#ma4a115115f" x="290.980655" y="319.43129" style="stroke: #000000; stroke-width: 0.8"/>
      </g>
     </g>
     <g id="text_70">
      <text style="font: 8px 'sans-serif'; text-anchor: end" x="283.980655" y="322.470665" transform="rotate(-0, 283.980655, 322.470665)">4</text>
     </g>
    </g>
    <g id="ytick_20">
     <g id="line2d_118">
      <path d="M 290.980655 288.397958 
L 513.293382 288.397958 
" clip-path="url(#pdd53d755c7)" style="fill: none; stroke: #b0b0b0; stroke-opacity: 0.3; stroke-width: 0.8; stroke-linecap: square"/>
     </g>
     <g id="line2d_119">
      <g>
       <use xlink:href="#ma4a115115f" x="290.980655" y="288.397958" style="stroke: #000000; stroke-width: 0.8"/>
      </g>
     </g>
     <g id="text_71">
      <text style="font: 8px 'sans-serif'; text-anchor: end" x="283.980655" y="291.437333" transform="rotate(-0, 283.980655, 291.437333)">6</text>
     </g>
    </g>
    <g id="ytick_21">
     <g id="line2d_120">
      <path d="M 290.980655 257.364625 
L 513.293382 257.364625 
" clip-path="url(#pdd53d755c7)" style="fill: none; stroke: #b0b0b0; stroke-opacity: 0.3; stroke-width: 0.8; stroke-linecap: square"/>
     </g>
     <g id="line2d_121">
      <g>
       <use xlink:href="#ma4a115115f" x="290.980655" y="257.364625" style="stroke: #000000; stroke-width: 0.8"/>
      </g>
     </g>
     <g id="text_72">
      <text style="font: 8px 'sans-serif'; text-anchor: end" x="283.980655" y="260.404" transform="rotate(-0, 283.980655, 260.404)">8</text>
     </g>
    </g>
    <g id="text_73">
     <text style="font: 8px 'sans-serif'; text-anchor: middle" x="273.226905" y="305.911411" transform="rotate(-90, 273.226905, 305.911411)">barrier value h</text>
    </g>
   </g>
   <g id="line2d_122">
    <path d="M 301.086722 237.251562 
L 305.027969 236.677107 
L 306.716539 236.712599 
L 307.842227 236.878933 
L 311.219933 237.707197 
L 312.346466 238.115406 
L 312.909238 238.115406 
L 313.472109 238.609655 
L 314.035352 238.609655 
L 316.287563 239.374244 
L 317.975779 239.714261 
L 319.665212 239.831569 
L 322.478358 239.691471 
L 323.604323 239.579138 
L 324.730403 239.470888 
L 328.671331 238.953318 
L 329.797075 239.038586 
L 330.360863 239.864993 
L 330.923391 239.864993 
L 331.487704 242.141401 
L 332.049342 242.141401 
L 333.738896 248.433952 
L 334.301231 250.844187 
L 335.42704 256.349737 
L 336.552849 261.39235 
L 337.11572 261.39235 
L 338.241641 267.023779 
L 340.494441 276.662234 
L 342.18295 282.480925 
L 343.310177 285.519202 
L 344.996927 289.514151 
L 345.561647 289.514151 
L 346.123159 291.662195 
L 346.687427 291.662195 
L 347.812627 294.058981 
L 350.063348 298.089071 
L 351.189039 299.70652 
L 351.752625 299.70652 
L 352.315089 301.792063 
L 352.87789 301.792063 
L 353.441614 303.759147 
L 354.004176 303.759147 
L 355.130093 305.885415 
L 360.760456 315.737355 
L 361.322472 315.737355 
L 361.886381 317.907693 
L 365.262537 324.212014 
L 366.388046 326.355368 
L 368.640235 330.347395 
L 369.203513 330.347395 
L 369.766647 332.250097 
L 370.89263 334.317193 
L 373.143771 338.204386 
L 373.70746 338.204386 
L 374.269548 339.961389 
L 374.833384 340.954552 
L 375.395494 340.954552 
L 375.960083 342.597643 
L 376.521421 343.386815 
L 377.085053 343.386815 
L 377.647423 345.024041 
L 382.150726 350.758115 
L 382.713999 351.393451 
L 383.276961 351.393451 
L 383.840194 352.703407 
L 384.40329 353.27663 
L 384.966065 353.27663 
L 385.530705 354.381629 
L 386.654747 355.544441 
L 390.595847 359.249408 
L 391.159179 359.249408 
L 391.722012 360.174581 
L 392.285934 360.62171 
L 392.847623 360.62171 
L 393.410454 361.562677 
L 396.788267 363.971167 
L 397.351465 363.971167 
L 397.914357 364.764504 
L 402.98274 367.845623 
L 405.796913 369.444138 
L 406.361459 369.444138 
L 406.922507 369.799353 
L 407.485169 370.396978 
L 408.048592 370.687069 
L 408.611463 370.687069 
L 409.174361 371.29843 
L 413.115817 373.096344 
L 415.931059 374.049923 
L 420.43373 375.222009 
L 426.626482 376.379441 
L 430.566448 376.819719 
L 433.382248 376.946798 
L 436.196018 376.835494 
L 439.010682 376.535517 
L 441.263034 376.113543 
L 444.077582 375.367147 
L 448.581472 373.644193 
L 451.395664 372.284441 
L 453.647933 371.251465 
L 454.210992 371.251465 
L 454.773739 370.75634 
L 459.278243 368.668961 
L 461.530424 367.455218 
L 463.780705 366.064672 
L 466.59481 364.26685 
L 471.098821 360.996614 
L 471.661751 360.001598 
L 472.227316 360.001598 
L 474.477192 357.920763 
L 476.165947 356.216561 
L 477.855171 354.49565 
L 478.980232 353.195386 
L 479.542867 351.970095 
L 480.10587 351.970095 
L 481.232239 350.630173 
L 484.610521 346.807742 
L 485.173051 346.807742 
L 485.735976 346.038263 
L 486.301332 343.979219 
L 486.86156 343.979219 
L 487.426599 342.483613 
L 487.987744 342.483613 
L 488.551719 341.04837 
L 489.11376 341.04837 
L 490.239802 339.444644 
L 491.928868 337.002931 
L 493.616926 334.614006 
L 494.179682 332.899015 
L 494.743006 332.899015 
L 495.306343 331.300809 
L 495.869348 331.300809 
L 496.995334 329.526033 
L 498.684416 326.85992 
L 500.373905 324.255785 
L 501.499318 322.312827 
L 502.06176 320.487009 
L 502.62655 320.487009 
L 503.188258 318.466144 
L 503.188258 318.466144 
" clip-path="url(#pdd53d755c7)" style="fill: none; stroke-dasharray: 6.66,2.88; stroke-dashoffset: 0; stroke: #555555; stroke-width: 1.8"/>
   </g>
   <g id="line2d_123">
    <path d="M 301.085779 234.876025 
L 307.279182 235.204316 
L 309.531159 235.390257 
L 310.656684 235.462186 
L 316.848761 236.317159 
L 320.225864 236.941182 
L 322.478136 237.071009 
L 324.169523 237.075588 
L 325.294206 237.021165 
L 326.982128 236.653886 
L 327.546108 236.445318 
L 328.108052 236.360705 
L 328.671296 236.480523 
L 329.23406 236.748861 
L 329.796783 236.748861 
L 330.360737 237.993372 
L 330.922991 237.993372 
L 331.485929 240.305492 
L 332.04849 240.305492 
L 333.737695 246.453936 
L 334.300563 248.88218 
L 335.426721 254.471446 
L 336.553422 259.626158 
L 337.116693 259.626158 
L 338.804523 268.530596 
L 341.056184 278.67799 
L 342.745513 284.476339 
L 343.870879 287.392221 
L 344.433989 287.392221 
L 344.996838 290.086005 
L 345.560028 290.086005 
L 346.122669 292.262005 
L 346.685669 292.262005 
L 347.811419 294.356579 
L 351.190253 299.736128 
L 351.753386 299.736128 
L 352.317691 301.69275 
L 352.878485 301.69275 
L 354.004155 303.579659 
L 355.694025 306.770898 
L 356.819303 309.110021 
L 360.759725 317.076729 
L 361.322462 317.076729 
L 362.447909 319.376832 
L 363.011182 320.406862 
L 363.57423 322.592869 
L 365.826242 326.512447 
L 366.389678 326.512447 
L 366.952059 328.244234 
L 367.515533 329.077065 
L 368.077359 329.077065 
L 368.643221 330.817304 
L 370.89292 333.84295 
L 372.018485 335.14492 
L 372.581884 335.14492 
L 373.14439 336.495158 
L 373.70709 337.110715 
L 374.270087 337.110715 
L 374.832577 338.454122 
L 381.589677 346.036521 
L 382.15175 346.036521 
L 382.716006 347.118614 
L 383.277805 347.648358 
L 383.841336 347.648358 
L 384.40351 348.784842 
L 387.781135 352.000957 
L 389.469089 353.767297 
L 390.031826 353.767297 
L 390.594909 354.997587 
L 395.662846 359.984924 
L 397.350621 361.383891 
L 397.913936 361.383891 
L 398.476588 362.18439 
L 402.980143 365.121919 
L 405.231115 366.40442 
L 405.794023 366.40442 
L 406.356549 367.107888 
L 409.172305 368.933454 
L 413.113373 371.490801 
L 413.67581 371.490801 
L 414.239632 372.417909 
L 414.801522 372.417909 
L 415.927283 373.029935 
L 419.305782 374.488606 
L 419.868428 374.488606 
L 420.431031 374.891445 
L 421.556966 375.220541 
L 422.11988 375.517348 
L 422.683075 375.517348 
L 423.246029 375.714086 
L 424.372012 375.801518 
L 427.18841 375.99779 
L 430.564604 375.997283 
L 432.253557 375.868737 
L 435.068046 375.578201 
L 437.320469 375.845217 
L 439.572266 375.937957 
L 442.38776 375.757025 
L 445.201668 375.36725 
L 445.764598 375.154622 
L 446.32752 375.154622 
L 446.890313 374.885198 
L 447.453444 374.885198 
L 448.015881 374.58992 
L 448.580459 374.58992 
L 450.831745 373.851359 
L 451.394179 373.851359 
L 451.957058 373.388946 
L 453.083963 372.903891 
L 453.645818 372.348706 
L 454.210753 372.348706 
L 454.772067 371.801215 
L 455.33739 371.801215 
L 458.149976 370.251368 
L 460.401782 368.953877 
L 462.090647 367.939222 
L 462.653001 367.183134 
L 463.216247 367.183134 
L 463.77922 366.435531 
L 464.342166 366.435531 
L 468.845734 362.956133 
L 469.409066 362.012519 
L 469.971439 362.012519 
L 470.535194 361.136666 
L 471.098041 361.136666 
L 472.786137 359.743626 
L 474.474739 358.207826 
L 476.16335 356.542109 
L 476.725832 355.988456 
L 477.288923 354.829689 
L 477.853855 354.829689 
L 478.414911 353.494609 
L 478.978407 353.494609 
L 479.541248 352.189714 
L 480.104412 352.189714 
L 481.79336 350.034916 
L 484.608449 346.470898 
L 485.170379 344.947096 
L 485.734467 344.947096 
L 486.296384 343.511209 
L 486.860174 343.511209 
L 487.422504 341.961479 
L 487.985343 341.961479 
L 491.362574 337.551436 
L 492.48893 335.998579 
L 493.052128 334.535301 
L 493.615377 334.535301 
L 494.177886 332.921715 
L 494.741491 332.921715 
L 495.304679 331.416634 
L 495.867635 331.416634 
L 497.556964 328.884197 
L 499.245017 326.171823 
L 500.371207 324.394755 
L 500.934311 322.385912 
L 501.497238 322.385912 
L 502.059485 320.482604 
L 502.623374 320.482604 
L 503.18561 318.356236 
L 503.18561 318.356236 
" clip-path="url(#pdd53d755c7)" style="fill: none; stroke: #2a6fbb; stroke-width: 2; stroke-linecap: square"/>
   </g>
   <g id="line2d_124">
    <path d="M 290.980655 381.497955 
L 513.293382 381.497955 
" clip-path="url(#pdd53d755c7)" style="fill: none; stroke-dasharray: 1.2,1.98; stroke-dashoffset: 0; stroke: #a83232; stroke-width: 1.2"/>
   </g>
   <g id="patch_12">
    <path d="M 290.980655 384.050337 
L 290.980655 227.772486 
" style="fill: none; stroke: #000000; stroke-width: 0.8; stroke-linejoin: miter; stroke-linecap: square"/>
   </g>
   <g id="patch_13">
    <path d="M 290.980655 384.050337 
L 513.293382 384.050337 
" style="fill: none; stroke: #000000; stroke-width: 0.8; stroke-linejoin: miter; stroke-linecap: square"/>
   </g>
   <g id="text_74">
    <text style="font: 700 9px 'sans-serif'; text-anchor: start" x="262.08" y="219.958594" transform="rotate(-0, 262.08, 219.958594)">d</text>
   </g>
   <g id="text_75">
    <text style="font: 8.5px 'sans-serif'; text-anchor: start" x="290.980655" y="223.772486" transform="rotate(-0, 290.980655, 223.772486)">Narrow passage</text>
   </g>
   <g id="legend_4">
    <g id="line2d_125">
     <path d="M 446.865882 238.251236 
L 454.865882 238.251236 
L 462.865882 238.251236 
" style="fill: none; stroke-dasharray: 6.66,2.88; stroke-dashoffset: 0; stroke: #555555; stroke-width: 1.8"/>
    </g>
    <g id="text_76">
     <text style="font: 8px 'sans-serif'; text-anchor: start" x="469.265882" y="241.051236" transform="rotate(-0, 469.265882, 241.051236)">Baseline</text>
    </g>
    <g id="line2d_126">
     <path d="M 446.865882 249.993736 
L 454.865882 249.993736 
L 462.865882 249.993736 
" style="fill: none; stroke: #2a6fbb; stroke-width: 2; stroke-linecap: square"/>
    </g>
    <g id="text_77">
     <text style="font: 8px 'sans-serif'; text-anchor: start" x="469.265882" y="252.793736" transform="rotate(-0, 469.265882, 252.793736)">CBF filter</text>
    </g>
   </g>
  </g>
  <g id="axes_5">
   <g id="patch_14">
    <path d="M 36.100655 589.970337 
L 258.413382 589.970337 
L 258.413382 433.692486 
L 36.100655 433.692486 
z
" style="fill: #ffffff"/>
   </g>
   <g id="matplotlib.axis_9">
    <g id="xtick_33">
     <g id="line2d_127">
      <path d="M 46.198598 589.970337 
L 46.198598 433.692486 
" clip-path="url(#pa2e9b65e0d)" style="fill: none; stroke: #b0b0b0; stroke-opacity: 0.3; stroke-width: 0.8; stroke-linecap: square"/>
     </g>
     <g id="line2d_128">
      <g>
       <use xlink:href="#mc3f0ec66da" x="46.198598" y="589.970337" style="stroke: #000000; stroke-width: 0.8"/>
      </g>
     </g>
     <g id="text_78">
      <text style="font: 8px 'sans-serif'; text-anchor: middle" x="46.198598" y="603.049087" transform="rotate(-0, 46.198598, 603.049087)">0.0</text>
     </g>
    </g>
    <g id="xtick_34">
     <g id="line2d_129">
      <path d="M 74.302638 589.970337 
L 74.302638 433.692486 
" clip-path="url(#pa2e9b65e0d)" style="fill: none; stroke: #b0b0b0; stroke-opacity: 0.3; stroke-width: 0.8; stroke-linecap: square"/>
     </g>
     <g id="line2d_130">
      <g>
       <use xlink:href="#mc3f0ec66da" x="74.302638" y="589.970337" style="stroke: #000000; stroke-width: 0.8"/>
      </g>
     </g>
     <g id="text_79">
      <text style="font: 8px 'sans-serif'; text-anchor: middle" x="74.302638" y="603.049087" transform="rotate(-0, 74.302638, 603.049087)">2.5</text>
     </g>
    </g>
    <g id="xtick_35">
     <g id="line2d_131">
      <path d="M 102.406677 589.970337 
L 102.406677 433.692486 
" clip-path="url(#pa2e9b65e0d)" style="fill: none; stroke: #b0b0b0; stroke-opacity: 0.3; stroke-width: 0.8; stroke-linecap: square"/>
     </g>
     <g id="line2d_132">
      <g>
       <use xlink:href="#mc3f0ec66da" x="102.406677" y="589.970337" style="stroke: #000000; stroke-width: 0.8"/>
      </g>
     </g>
     <g id="text_80">
      <text style="font: 8px 'sans-serif'; text-anchor: middle" x="102.406677" y="603.049087" transform="rotate(-0, 102.406677, 603.049087)">5.0</text>
     </g>
    </g>
    <g id="xtick_36">
     <g id="line2d_133">
      <path d="M 130.510716 589.970337 
L 130.510716 433.692486 
" clip-path="url(#pa2e9b65e0d)" style="fill: none; stroke: #b0b0b0; stroke-opacity: 0.3; stroke-width: 0.8; stroke-linecap: square"/>
     </g>
     <g id="line2d_134">
      <g>
       <use xlink:href="#mc3f0ec66da" x="130.510716" y="589.970337" style="stroke: #000000; stroke-width: 0.8"/>
      </g>
     </g>
     <g id="text_81">
      <text style="font: 8px 'sans-serif'; text-anchor: middle" x="130.510716" y="603.049087" transform="rotate(-0, 130.510716, 603.049087)">7.5</text>
     </g>
    </g>
    <g id="xtick_37">
     <g id="line2d_135">
      <path d="M 158.614755 589.970337 
L 158.614755 433.692486 
" clip-path="url(#pa2e9b65e0d)" style="fill: none; stroke: #b0b0b0; stroke-opacity: 0.3; stroke-width: 0.8; stroke-linecap: square"/>
     </g>
     <g id="line2d_136">
      <g>
       <use xlink:href="#mc3f0ec66da" x="158.614755" y="589.970337" style="stroke: #000000; stroke-width: 0.8"/>
      </g>
     </g>
     <g id="text_82">
      <text style="font: 8px 'sans-serif'; text-anchor: middle" x="158.614755" y="603.049087" transform="rotate(-0, 158.614755, 603.049087)">10.0</text>
     </g>
    </g>
    <g id="xtick_38">
     <g id="line2d_137">
      <path d="M 186.718795 589.970337 
L 186.718795 433.692486 
" clip-path="url(#pa2e9b65e0d)" style="fill: none; stroke: #b0b0b0; stroke-opacity: 0.3; stroke-width: 0.8; stroke-linecap: square"/>
     </g>
     <g id="line2d_138">
      <g>
       <use xlink:href="#mc3f0ec66da" x="186.718795" y="589.970337" style="stroke: #000000; stroke-width: 0.8"/>
      </g>
     </g>
     <g id="text_83">
      <text style="font: 8px 'sans-serif'; text-anchor: middle" x="186.718795" y="603.049087" transform="rotate(-0, 186.718795, 603.049087)">12.5</text>
     </g>
    </g>
    <g id="xtick_39">
     <g id="line2d_139">
      <path d="M 214.822834 589.970337 
L 214.822834 433.692486 
" clip-path="url(#pa2e9b65e0d)" style="fill: none; stroke: #b0b0b0; stroke-opacity: 0.3; stroke-width: 0.8; stroke-linecap: square"/>
     </g>
     <g id="line2d_140">
      <g>
       <use xlink:href="#mc3f0ec66da" x="214.822834" y="589.970337" style="stroke: #000000; stroke-width: 0.8"/>
      </g>
     </g>
     <g id="text_84">
      <text style="font: 8px 'sans-serif'; text-anchor: middle" x="214.822834" y="603.049087" transform="rotate(-0, 214.822834, 603.049087)">15.0</text>
     </g>
    </g>
    <g id="xtick_40">
     <g id="line2d_141">
      <path d="M 242.926873 589.970337 
L 242.926873 433.692486 
" clip-path="url(#pa2e9b65e0d)" style="fill: none; stroke: #b0b0b0; stroke-opacity: 0.3; stroke-width: 0.8; stroke-linecap: square"/>
     </g>
     <g id="line2d_142">
      <g>
       <use xlink:href="#mc3f0ec66da" x="242.926873" y="589.970337" style="stroke: #000000; stroke-width: 0.8"/>
      </g>
     </g>
     <g id="text_85">
      <text style="font: 8px 'sans-serif'; text-anchor: middle" x="242.926873" y="603.049087" transform="rotate(-0, 242.926873, 603.049087)">17.5</text>
     </g>
    </g>
    <g id="text_86">
     <text style="font: 8px 'sans-serif'; text-anchor: middle" x="147.257018" y="614.791587" transform="rotate(-0, 147.257018, 614.791587)">time [s]</text>
    </g>
   </g>
   <g id="matplotlib.axis_10">
    <g id="ytick_22">
     <g id="line2d_143">
      <path d="M 36.100655 563.391228 
L 258.413382 563.391228 
" clip-path="url(#pa2e9b65e0d)" style="fill: none; stroke: #b0b0b0; stroke-opacity: 0.3; stroke-width: 0.8; stroke-linecap: square"/>
     </g>
     <g id="line2d_144">
      <g>
       <use xlink:href="#ma4a115115f" x="36.100655" y="563.391228" style="stroke: #000000; stroke-width: 0.8"/>
      </g>
     </g>
     <g id="text_87">
      <text style="font: 8px 'sans-serif'; text-anchor: end" x="29.100655" y="566.430603" transform="rotate(-0, 29.100655, 566.430603)">0</text>
     </g>
    </g>
    <g id="ytick_23">
     <g id="line2d_145">
      <path d="M 36.100655 532.915274 
L 258.413382 532.915274 
" clip-path="url(#pa2e9b65e0d)" style="fill: none; stroke: #b0b0b0; stroke-opacity: 0.3; stroke-width: 0.8; stroke-linecap: square"/>
     </g>
     <g id="line2d_146">
      <g>
       <use xlink:href="#ma4a115115f" x="36.100655" y="532.915274" style="stroke: #000000; stroke-width: 0.8"/>
      </g>
     </g>
     <g id="text_88">
      <text style="font: 8px 'sans-serif'; text-anchor: end" x="29.100655" y="535.954649" transform="rotate(-0, 29.100655, 535.954649)">2</text>
     </g>
    </g>
    <g id="ytick_24">
     <g id="line2d_147">
      <path d="M 36.100655 502.439321 
L 258.413382 502.439321 
" clip-path="url(#pa2e9b65e0d)" style="fill: none; stroke: #b0b0b0; stroke-opacity: 0.3; stroke-width: 0.8; stroke-linecap: square"/>
     </g>
     <g id="line2d_148">
      <g>
       <use xlink:href="#ma4a115115f" x="36.100655" y="502.439321" style="stroke: #000000; stroke-width: 0.8"/>
      </g>
     </g>
     <g id="text_89">
      <text style="font: 8px 'sans-serif'; text-anchor: end" x="29.100655" y="505.478696" transform="rotate(-0, 29.100655, 505.478696)">4</text>
     </g>
    </g>
    <g id="ytick_25">
     <g id="line2d_149">
      <path d="M 36.100655 471.963367 
L 258.413382 471.963367 
" clip-path="url(#pa2e9b65e0d)" style="fill: none; stroke: #b0b0b0; stroke-opacity: 0.3; stroke-width: 0.8; stroke-linecap: square"/>
     </g>
     <g id="line2d_150">
      <g>
       <use xlink:href="#ma4a115115f" x="36.100655" y="471.963367" style="stroke: #000000; stroke-width: 0.8"/>
      </g>
     </g>
     <g id="text_90">
      <text style="font: 8px 'sans-serif'; text-anchor: end" x="29.100655" y="475.002742" transform="rotate(-0, 29.100655, 475.002742)">6</text>
     </g>
    </g>
    <g id="ytick_26">
     <g id="line2d_151">
      <path d="M 36.100655 441.487413 
L 258.413382 441.487413 
" clip-path="url(#pa2e9b65e0d)" style="fill: none; stroke: #b0b0b0; stroke-opacity: 0.3; stroke-width: 0.8; stroke-linecap: square"/>
     </g>
     <g id="line2d_152">
      <g>
       <use xlink:href="#ma4a115115f" x="36.100655" y="441.487413" style="stroke: #000000; stroke-width: 0.8"/>
      </g>
     </g>
     <g id="text_91">
      <text style="font: 8px 'sans-serif'; text-anchor: end" x="29.100655" y="444.526788" transform="rotate(-0, 29.100655, 444.526788)">8</text>
     </g>
    </g>
    <g id="text_92">
     <text style="font: 8px 'sans-serif'; text-anchor: middle" x="18.346905" y="511.831411" transform="rotate(-90, 18.346905, 511.831411)">barrier value h</text>
    </g>
   </g>
   <g id="line2d_153">
    <path d="M 46.206089 440.796025 
L 50.147354 441.178831 
L 52.399666 441.222655 
L 55.776792 441.084034 
L 59.155069 441.221169 
L 64.221467 441.615813 
L 70.414719 441.480259 
L 73.228868 441.171338 
L 74.355111 441.51205 
L 74.918207 441.967596 
L 75.481163 442.614722 
L 76.044281 442.614722 
L 76.606809 444.849158 
L 77.169572 444.849158 
L 78.295483 448.831013 
L 79.421758 453.741525 
L 80.547916 459.809794 
L 81.674207 465.598415 
L 82.238016 465.598415 
L 83.363374 471.66082 
L 85.050835 479.474206 
L 86.177126 483.582166 
L 87.865554 488.891089 
L 89.558114 493.072303 
L 91.243278 496.384505 
L 91.806535 496.384505 
L 92.368816 498.600306 
L 92.932156 498.600306 
L 96.311812 504.802786 
L 96.873603 504.802786 
L 97.436943 506.904338 
L 97.999101 506.904338 
L 98.562618 508.796642 
L 99.124406 508.796642 
L 100.250365 510.813262 
L 101.939337 513.783369 
L 103.628003 516.717034 
L 104.191225 517.894942 
L 104.753991 517.894942 
L 105.317254 519.963247 
L 105.880344 521.013547 
L 106.442784 521.013547 
L 107.005588 523.314333 
L 109.821523 528.863048 
L 112.073511 533.395933 
L 112.63654 533.395933 
L 113.198888 535.658475 
L 116.013744 540.598817 
L 118.265815 544.145996 
L 118.828975 544.145996 
L 119.391749 545.749255 
L 119.954232 546.6609 
L 120.517164 546.6609 
L 121.079995 548.187879 
L 121.643289 548.939398 
L 122.206908 548.939398 
L 122.76928 550.537632 
L 127.837099 556.899598 
L 128.39948 556.899598 
L 128.962469 558.339361 
L 129.525326 559.000342 
L 130.088071 559.000342 
L 130.651119 560.311337 
L 131.777346 561.691645 
L 135.716834 565.886198 
L 136.279941 565.886198 
L 136.843356 566.92601 
L 137.408049 567.422887 
L 137.969435 567.422887 
L 138.534359 568.442141 
L 141.910598 571.143401 
L 142.472901 571.143401 
L 143.036517 572.041334 
L 143.59875 572.438599 
L 144.161307 572.438599 
L 144.724567 573.260052 
L 148.102229 575.355011 
L 150.917071 576.902737 
L 151.479948 576.902737 
L 152.043124 577.234773 
L 152.606435 577.785667 
L 153.168968 578.051636 
L 153.734519 578.051636 
L 154.295264 578.612354 
L 158.797688 580.530664 
L 161.612428 581.425603 
L 164.989418 582.177505 
L 167.241815 582.52683 
L 167.804925 582.52683 
L 168.932028 582.709819 
L 171.183579 582.849074 
L 173.997234 582.847933 
L 177.937872 582.338926 
L 181.879332 581.380279 
L 183.005784 581.019889 
L 183.567696 581.019889 
L 184.132086 580.665363 
L 184.693735 580.481998 
L 185.257271 580.481998 
L 185.819539 580.064314 
L 188.071333 579.139096 
L 190.323012 578.04025 
L 191.449148 577.457768 
L 192.011909 576.775386 
L 192.57519 576.775386 
L 193.137431 576.098379 
L 193.701433 576.098379 
L 198.206719 572.742476 
L 198.767732 572.198952 
L 199.331512 572.198952 
L 199.893531 570.725791 
L 200.456865 570.725791 
L 201.019361 569.605583 
L 201.58235 569.605583 
L 204.959883 566.351077 
L 206.648898 564.649095 
L 207.211941 564.103254 
L 207.774334 562.894319 
L 208.337385 562.894319 
L 211.15387 559.869597 
L 213.967188 556.840832 
L 215.093248 555.573713 
L 215.656771 554.380578 
L 216.219087 554.380578 
L 216.781781 553.028665 
L 217.344847 553.028665 
L 218.471256 551.696434 
L 220.160196 549.44111 
L 222.412157 546.323706 
L 222.974679 545.549543 
L 223.537781 543.837586 
L 224.101708 543.837586 
L 224.66356 542.218192 
L 225.227449 542.218192 
L 226.355025 540.453688 
L 229.731296 535.38999 
L 230.293293 534.430502 
L 230.856665 534.430502 
L 231.419783 531.930796 
L 231.982522 531.930796 
L 232.545165 530.070633 
L 233.108516 530.070633 
L 233.671542 528.320452 
L 234.234896 528.320452 
L 235.360203 526.380139 
L 237.613156 522.475048 
L 238.737927 520.605172 
L 239.301811 518.587126 
L 239.864272 518.587126 
L 240.428502 516.752948 
L 240.990529 516.752948 
L 242.116056 514.74383 
L 245.493512 508.918888 
L 246.619214 506.85656 
L 247.182414 504.961054 
L 247.745298 504.961054 
L 248.308258 502.919733 
L 248.308258 502.919733 
" clip-path="url(#pa2e9b65e0d)" style="fill: none; stroke-dasharray: 6.66,2.88; stroke-dashoffset: 0; stroke: #555555; stroke-width: 1.8"/>
   </g>
   <g id="line2d_154">
    <path d="M 46.205779 443.435581 
L 47.89523 443.228502 
L 50.710413 443.296937 
L 52.965295 443.647928 
L 57.464947 444.447994 
L 58.590694 444.520973 
L 60.842577 444.862383 
L 61.405159 445.163257 
L 61.968512 445.163257 
L 62.531278 445.514461 
L 63.094514 445.514461 
L 65.346876 446.009005 
L 73.790717 447.408994 
L 74.916205 448.097487 
L 75.478791 448.627894 
L 76.041719 449.378722 
L 77.168232 452.033624 
L 78.29369 455.883339 
L 79.420126 461.371491 
L 79.983235 461.371491 
L 80.547321 467.125503 
L 81.109227 467.125503 
L 82.235051 473.498376 
L 83.360367 479.155175 
L 83.924559 479.155175 
L 84.486519 484.748091 
L 85.049773 484.748091 
L 86.738348 491.725896 
L 88.427682 497.075076 
L 89.552411 500.307153 
L 91.804318 505.423425 
L 94.056437 509.505214 
L 94.620533 509.505214 
L 97.433622 513.647432 
L 101.374367 518.5755 
L 101.937734 518.5755 
L 102.500267 519.81491 
L 103.063545 519.81491 
L 103.626317 521.15372 
L 104.189006 521.15372 
L 104.752287 521.761731 
L 105.314831 523.05378 
L 105.878093 523.644107 
L 106.441556 523.644107 
L 112.071806 529.660377 
L 112.633954 530.366502 
L 113.197958 531.64065 
L 113.759505 532.29858 
L 114.323295 532.29858 
L 114.88577 533.720221 
L 115.448959 533.720221 
L 116.011586 534.996597 
L 116.574613 534.996597 
L 117.700741 536.313637 
L 119.951407 538.56906 
L 120.514047 539.05555 
L 121.076797 540.04974 
L 121.639963 540.478513 
L 122.203346 540.478513 
L 122.766514 541.291603 
L 123.329243 541.291603 
L 123.89265 542.084527 
L 124.455194 542.084527 
L 126.706841 543.413977 
L 127.270506 543.413977 
L 127.832728 543.982243 
L 128.396462 544.299746 
L 128.958612 544.839841 
L 129.52137 545.096371 
L 130.084673 545.096371 
L 130.647158 545.608232 
L 131.210495 545.608232 
L 135.714494 547.217847 
L 136.277729 547.407664 
L 136.840705 547.82925 
L 137.403686 548.020553 
L 137.967749 548.020553 
L 138.529827 548.388354 
L 139.094885 548.388354 
L 140.781603 548.906002 
L 145.285052 550.006426 
L 145.848092 550.006426 
L 146.410665 550.177745 
L 146.974228 550.177745 
L 147.536592 550.318286 
L 148.099852 550.318286 
L 148.662366 550.477665 
L 149.788491 550.55795 
L 155.41957 551.375873 
L 156.545266 551.434232 
L 161.611171 551.821983 
L 173.433409 552.474119 
L 179.625871 552.573114 
L 183.567956 552.895138 
L 184.693708 553.131333 
L 185.819019 553.20248 
L 194.825843 554.258865 
L 197.078021 554.369242 
L 202.144366 554.448677 
L 205.521902 554.376114 
L 208.899658 554.080861 
L 218.470238 553.353403 
L 220.158757 553.257124 
L 221.284686 553.169828 
L 223.539853 553.035697 
L 229.72928 552.806526 
L 231.418367 552.717748 
L 234.795488 552.47259 
L 235.357697 552.304551 
L 235.921217 552.304551 
L 236.484179 552.105093 
L 237.047189 552.105093 
L 237.611087 551.906083 
L 238.17329 551.906083 
L 238.736641 551.696743 
L 240.989451 551.396483 
L 242.676338 551.300309 
L 246.616488 550.873923 
L 247.742897 550.654238 
L 248.305009 550.578813 
L 248.305009 550.578813 
" clip-path="url(#pa2e9b65e0d)" style="fill: none; stroke: #2a6fbb; stroke-width: 2; stroke-linecap: square"/>
   </g>
   <g id="line2d_155">
    <path d="M 36.100655 563.391228 
L 258.413382 563.391228 
" clip-path="url(#pa2e9b65e0d)" style="fill: none; stroke-dasharray: 1.2,1.98; stroke-dashoffset: 0; stroke: #a83232; stroke-width: 1.2"/>
   </g>
   <g id="patch_15">
    <path d="M 36.100655 589.970337 
L 36.100655 433.692486 
" style="fill: none; stroke: #000000; stroke-width: 0.8; stroke-linejoin: miter; stroke-linecap: square"/>
   </g>
   <g id="patch_16">
    <path d="M 36.100655 589.970337 
L 258.413382 589.970337 
" style="fill: none; stroke: #000000; stroke-width: 0.8; stroke-linejoin: miter; stroke-linecap: square"/>
   </g>
   <g id="text_93">
    <text style="font: 700 9px 'sans-serif'; text-anchor: start" x="7.2" y="425.878594" transform="rotate(-0, 7.2, 425.878594)">e</text>
   </g>
   <g id="text_94">
    <text style="font: 8.5px 'sans-serif'; text-anchor: start" x="36.100655" y="429.692486" transform="rotate(-0, 36.100655, 429.692486)">Wind-bias stress</text>
   </g>
   <g id="legend_5">
    <g id="line2d_156">
     <path d="M 191.985882 444.171236 
L 199.985882 444.171236 
L 207.985882 444.171236 
" style="fill: none; stroke-dasharray: 6.66,2.88; stroke-dashoffset: 0; stroke: #555555; stroke-width: 1.8"/>
    </g>
    <g id="text_95">
     <text style="font: 8px 'sans-serif'; text-anchor: start" x="214.385882" y="446.971236" transform="rotate(-0, 214.385882, 446.971236)">Baseline</text>
    </g>
    <g id="line2d_157">
     <path d="M 191.985882 455.913736 
L 199.985882 455.913736 
L 207.985882 455.913736 
" style="fill: none; stroke: #2a6fbb; stroke-width: 2; stroke-linecap: square"/>
    </g>
    <g id="text_96">
     <text style="font: 8px 'sans-serif'; text-anchor: start" x="214.385882" y="458.713736" transform="rotate(-0, 214.385882, 458.713736)">CBF filter</text>
    </g>
   </g>
  </g>
  <g id="axes_6"/>
 </g>
 <defs>
  <clipPath id="p38088a674b">
   <rect x="36.100655" y="21.852486" width="222.312727" height="156.27785"/>
  </clipPath>
  <clipPath id="p5f3e55155f">
   <rect x="290.980655" y="21.852486" width="222.312727" height="156.27785"/>
  </clipPath>
  <clipPath id="p200881b202">
   <rect x="36.100655" y="227.772486" width="222.312727" height="156.27785"/>
  </clipPath>
  <clipPath id="pdd53d755c7">
   <rect x="290.980655" y="227.772486" width="222.312727" height="156.27785"/>
  </clipPath>
  <clipPath id="pa2e9b65e0d">
   <rect x="36.100655" y="433.692486" width="222.312727" height="156.27785"/>
  </clipPath>
 </defs>
</svg>
